/* XPM */
static char *df4cddf392f8413eced7c99d31af3c1fxdlMGcmAEk1rJIrZ[] = {
/* columns rows colors chars-per-pixel */
"50 50 12 1 ",
"  c None",
". c #D0D2D4",
"X c #D0D2D5",
"o c #D0D3D5",
"O c #D1D3D5",
"+ c #D6D8DA",
"@ c #D7D9DB",
"# c #D7D9DC",
"$ c #D7DADC",
"% c #D8DADC",
"& c #D9DBDD",
"* c #DADCDE",
/* pixels */
"                                                  ",
"                                                  ",
"  **                                          **  ",
"  ***                                        ***  ",
"   ***                  ..                  ***   ",
"    ***                ...O                ***    ",
"     ***              OO..O.              ***     ",
"      ***           O.. .. .OO           ***      ",
"       ***        ...O  ..  OO..        ***       ",
"        **%O..O.O..O    ..    ....O..OO%**        ",
"         %*+O.OO.       ..       OOO.O+*%         ",
"         O+*%           ..           %%+O         ",
"         O.+**         ...O         **+.O         ",
"         .O ***      .O.....O      *** ..         ",
"         ..  **+O.O.O.O .. O.OO.OO+**  OO         ",
"         O.   %*+...    ..    ..O+*%   ..         ",
"         .     +*%      OO      %*+     O         ",
"        OO     .#**     ..     **%O     ..        ",
"        ..     O ***    ..    *** O     ..        ",
"        O     ..  **%  ...O  %**  ..     O        ",
"       ..     OO   %*+O...OO+**   O.     O.       ",
"      O.     ..     +*% .O %*+O    OO     ..      ",
"     OO      OO    .O%**..**%OO    O.      OO     ",
"    O.O     .O     OO **++**  O     .O     O.O    ",
"  **%%%****%+*****%%%********%%%****%%%****%%%%*  ",
"  *%%%*****%%%****%+%********%%%*****+%****%%%**  ",
"    O.O     O.     O  **++** .O     OO     OOO    ",
"     .O      OO    OO***O.**%.O    ..      .O     ",
"      O.     OO    O+*% .. #*+     .O     OO      ",
"       .O     ..   %*+OO..OO+*%   O.     OO       ",
"        .     OO  **%  O..O  ***  .O     .        ",
"        .O     O ***    ..    *** .     OO        ",
"        O.     O#**     O.     **%O     O.        ",
"         .     +*%      ..      %*+     O         ",
"         ..   %*+O..    ..    ..O+*%   ..         ",
"         O.  **+O..OO.O .O O...OOO+**  ..         ",
"         .O ***      O.......      *** OO         ",
"         .O%**         O..O         **%O.         ",
"         O+*%           ..           +*+O         ",
"         %%+O.OOO       ..       OO.O.+*%         ",
"        **%OOO..O...    ..    ...O.O.OO%**        ",
"       ***        ...O  .O  O..O        ***       ",
"      ***           .O. .. O..           ***      ",
"     ***              .....O              ***     ",
"    ***                O...                ***    ",
"   ***                  ..                  ***   ",
"  ***                                        ***  ",
"  **                                          **  ",
"                                                  ",
"                                                  "
};
