/* XPM */
static char *abcdeb2087b94471e77581c5df80601deTzMWbPi18vRQxIJ[] = {
/* columns rows colors chars-per-pixel */
"50 50 82 1 ",
"  c None",
". c #6A5B4B",
"X c #6B5B4B",
"o c #6C5C4C",
"O c #6D5D4C",
"+ c #726150",
"@ c #746351",
"# c #746352",
"$ c #756353",
"% c #7A6857",
"& c #7C6958",
"* c #7C6A58",
"= c #6A787A",
"- c #6B787A",
"; c #6C797A",
": c #6D797A",
"> c #6C797B",
", c #6F7A7A",
"< c #6E7B7B",
"1 c #6E7B7C",
"2 c #6F7B7C",
"3 c #737D7B",
"4 c #717E7F",
"5 c #7D827B",
"6 c #78807C",
"7 c #83857C",
"8 c #988F7D",
"9 c #99907D",
"0 c #A58D70",
"q c #AD9475",
"w c #AE9476",
"e c #A0937E",
"r c #A0947E",
"t c #A1947E",
"y c #A2947E",
"u c #A4957E",
"i c #A5967E",
"p c #A7977E",
"a c #AA997F",
"s c #AC9A7F",
"d c #AD9A7F",
"f c #B49A79",
"g c #B59A7A",
"h c #B49E7F",
"j c #B9A07F",
"k c #BEA27E",
"l c #BFA27F",
"z c #BFA37F",
"x c #7E8582",
"c c #B7A081",
"v c #BBA180",
"b c #BCA180",
"n c #BEA280",
"m c #BFA380",
"M c #B9A486",
"N c #B3A99F",
"B c #A7AFAF",
"V c #B6ACA3",
"C c #B2BABA",
"Z c #C0A380",
"A c #C0A480",
"S c #C0A481",
"D c #C1A481",
"F c #C0A584",
"G c #C2A887",
"H c #C3AA8B",
"J c #C5AE91",
"K c #CEBEA8",
"L c #D5CCBD",
"P c #C4C9C8",
"I c #C6CDCD",
"U c #D7D3CA",
"Y c #DAD5CA",
"T c #DBD6CC",
"R c #D2D7D7",
"E c #DBD6D2",
"W c #DDD8D4",
"Q c #DEDDD8",
"! c #E0DED8",
"~ c #E8EDEF",
"^ c #E8EEF0",
"/ c #ECF1F2",
/* pixels */
"         OXXXX.o.oXX.o.oXXXXXXXX.o.o.oXXo         ",
"         $OXXX....XX....XXXXX.........Xo@         ",
"         %$+++##@#+#@@##@@@@@@@@@@##@@@$%         ",
"         %*0gfffffffffffffffffffffffff0%%         ",
"         %*qSSASAASAAASAASSmzzzmSAASSSq*%         ",
"         %*qSmzmzzmmmzmmzmzmzzmmmmzmSSq*%         ",
"         %*qSZmmzmmmmmmmmmmmmmmmmmmmASq*%         ",
"         %*qSzmmmmmmmmmmmmmmmmmmmmmmzSq*%         ",
"         %*qSmmmmmmmmmmmmmmmmmmmmmmmmSq*%         ",
"         %*qSmmmmmmmmmmmmmmmmmmmmmmmmSq*%         ",
"         %*qSmmmmmmmmmmmmmmmmmmmmmmmmSq*%         ",
"         %*qSmmmmmmmmmmmmmmmmmmmmmmmmSq*%         ",
"         %*qSmmmmmmmmmmmmmmmmmmmmmmmmSq*%         ",
"         %*qSmmmmmmmmmmmmmmmmmmmmmmmmSq*%         ",
"         %*qSmmmmmmmmmmmmmmmmmmmmmmmmSq*%         ",
"         %*qSmmmmmmmmmmmmmmmmmmmmmmmmSq*%         ",
"         %*qSmmmmmmmmmmmmmmmmmmmmmmmmmq**         ",
"         %*qSmmmmmmmmmmmmmmmmmmmmmmmzGw*%         ",
"         %*qSmmmmmmmmmmmmmmmmmmmmmmmzmw*%         ",
"         %*qSmmmmmmmmmmmmmmmmmmmmmmmzmw*%         ",
"         %*qSmmmmmmmmmmmmmmmmmmmmmmmmmq*%         ",
"         %*qSmmmmmmmmmmmmmmmmmmmmmmmmmq*%         ",
"         %*qSmmmmmmmmmmmmmmmmmmSmmmmmmq*%         ",
"         %*qSmmmmmmmmmmmmmmmmmzjiiszzGq*%         ",
"         %*qSmmmmmmmmmmmmmzzzzv7-,3cmmq*%         ",
"         %*qSmmmmmmmmmmmmmkkzzc3>--9mmw*%         ",
"         %*qSmmmmmmmmmmmmmzmLYUPB2,9mmw*%         ",
"         %*qSmmmmmmmmmmmmmkL^^^/I2-9mmw*%         ",
"         %*qSmmmmmmmmmmmmmzJT!QRC2>cSSq*%         ",
"         %*qSmmmmmmmmmmmmmmmFGMx2,-9ASq*%         ",
"         %*qSmmmmmmmmmmmmmmmmmj5--,iASq*%         ",
"         %*qSmmmmmmmmmmmmmmmmmmd98emzSq*%         ",
"         %*qSmmmmmmmmmmmmmmmmmmZSSAzmSq*%         ",
"         %*qSmmmmmmmmmmmmmmmmmmmzmmmmSq*%         ",
"         %*qSmmmmmmmmmmmmmmmmmmmmmmmmSq*%         ",
"         %*qSmmmmmmmmmmmmmmmmmmmmmmmmSq*%         ",
"         %*qSmmmmmmmmmmmmmmmmmmmmmmmmSq*%         ",
"         %*qSmmmmmmmmmmmmmmmmmmmmmmmmSq*%         ",
"         %*qSmmmmmmmmmmmmmmmmmmmmmmmmSq*%         ",
"         %*qSmmmmmmmmmmmmmmmmmmmmmmmmSq*%         ",
"         %*qSmmmmmmmmmmmmmmmmmmmmmmmmSq*%         ",
"         %*qSmmmmmmmmmmmmmmmmmmmmmmmmSq*%         ",
"         %*qSmmmmmmmmmmmmmmmmmmmmmmmmSq*%         ",
"         %*qSmmmmmmmmmmmmmmmmmmmmmmmmSq*%         ",
"         %*qSmmmmmmmmmmmmmmmmmmmmmmmmSq*%         ",
"         %*qSmmmmmmmmmmmmmmmmmmmmmmmmSq*%         ",
"         %*qSmmmmmmmmmmmmmmmmmmmmmmmmSq*%         ",
"EEEEEEEWN%*qSmmmmmmmmmmmmmmmmmmmmmmmmSq*%NWEEEEEEE",
"EEEEEEEWV%*qSmmmmmmmmmmmmmmmmmmmmmmmmSq*%VWEEEEEEE",
"EEEEEEEWV%*qSmmmmmmmmmmmmmmmmmmmmmmmmSq*%VWEEEEEEE"
};
