/* XPM */
static char *_a93cfa41fd0420cd898c9d88785fba2Nvesc3L51ZXYFPXq[] = {
/* columns rows colors chars-per-pixel */
"50 50 154 2 ",
"   c None",
".  c black",
"X  c #030201",
"o  c #050300",
"O  c #040404",
"+  c #070604",
"@  c #0B0802",
"#  c #070809",
"$  c #08090A",
"%  c #08090B",
"&  c #110C03",
"*  c #150E02",
"=  c #160F02",
"-  c #110F0B",
";  c #1D1403",
":  c #11100C",
">  c #13110C",
",  c #14110C",
"<  c #14120D",
"1  c #15120D",
"2  c #101113",
"3  c #131415",
"4  c #151515",
"5  c #151516",
"6  c #1B1812",
"7  c #1C1912",
"8  c #161718",
"9  c gray11",
"0  c #1D1D1E",
"q  c #1E1E1F",
"w  c #231703",
"e  c #221704",
"r  c #271B06",
"t  c #2B1D05",
"y  c #2B1E05",
"u  c #2F2006",
"i  c #322206",
"p  c #3A2807",
"a  c #2A241A",
"s  c #2A251A",
"d  c #2E281D",
"f  c #30291E",
"g  c #212122",
"h  c gray14",
"j  c gray15",
"k  c #262627",
"l  c #262727",
"z  c #272727",
"x  c #272828",
"c  c #282829",
"v  c #2A2B2B",
"b  c gray18",
"n  c #383123",
"m  c #3C3526",
"M  c #333334",
"N  c gray21",
"B  c #39393A",
"V  c #3A3A3A",
"C  c #3E3E3E",
"Z  c #47310A",
"A  c #51380B",
"S  c #5D400D",
"D  c #61420B",
"F  c #61420C",
"G  c #61430D",
"H  c #62430D",
"J  c #6B4A0F",
"K  c #755110",
"L  c #584D37",
"P  c gray26",
"I  c #434343",
"U  c #444444",
"Y  c gray35",
"T  c #5A5A5A",
"R  c #6D5F44",
"E  c #7D6D4E",
"W  c #7E6E4F",
"Q  c #7F6E4F",
"!  c #7F6F4F",
"~  c #626262",
"^  c #646464",
"/  c #815912",
"(  c #8C6114",
")  c #956715",
"_  c #9F6E16",
"`  c #A77317",
"'  c #A77318",
"]  c #AD7818",
"[  c #B37C19",
"{  c #B67E19",
"}  c #B77E1A",
"|  c #B87F1A",
" . c #BE8217",
".. c #BB811A",
"X. c #BE8218",
"o. c #BE8318",
"O. c #BE8319",
"+. c #BF831A",
"@. c #BE831B",
"#. c #BF841A",
"$. c #BF841B",
"%. c #C0841B",
"&. c #C0851B",
"*. c #C1851B",
"=. c #C1861B",
"-. c #C2861B",
";. c #C3871C",
":. c #C2871D",
">. c #C0861E",
",. c #C3871E",
"<. c #C2871F",
"1. c #C3881F",
"2. c #C18822",
"3. c #C18924",
"4. c #C28924",
"5. c #C38C2A",
"6. c #C48F2E",
"7. c #C7902D",
"8. c #C8912F",
"9. c #C89231",
"0. c #C99334",
"q. c #CA9638",
"w. c #CA963A",
"e. c #CC993E",
"r. c #CC993F",
"t. c #CD9F4D",
"y. c #CEA252",
"u. c #D0A457",
"i. c #D2A85E",
"p. c #D5AF6B",
"a. c #D7B16F",
"s. c #C9B07D",
"d. c #CAB07E",
"f. c #DAB87B",
"g. c #DBB97D",
"h. c #DCBA7F",
"j. c #CFB481",
"k. c #D1B682",
"l. c #D4B984",
"z. c #D6BB85",
"x. c #DDBE86",
"c. c #DCC089",
"v. c #DDC18A",
"b. c #E1C593",
"n. c #EDCF94",
"m. c #E4CA9D",
"M. c #E4CB9E",
"N. c #EED094",
"B. c #E8D2AC",
"V. c #F0E1C8",
"C. c #F2E6D0",
"Z. c #FAF5EC",
"A. c #FBF6EF",
"S. c #FBF7EF",
/* pixels */
"                  . . . . . . . . . . . . . . . . . . . . . . . . . . . . . . . .                   ",
"                  . n ! ! ! ! ! ! ! ! ! ! ! ! ! ! ! ! ! ! ! ! ! ! W ! ! ! W W d .                   ",
"                  . R N.k.d.d.d.d.d.d.d.d.d.d.d.d.d.d.d.d.d.d.d.d.d.d.d.d.k.n.L .                   ",
"                  . R l.d - - < < < < < < < > > < < , , , , , < < < < < - m c.L .                   ",
"                  . R l.7 w i = o . . . $ 4 q h k z z z j j j j j k M V 4 s c.L .                   ",
"                  . R l.6 H ..` ( J Z r & + # 2 q v N C P U U U I U Y ^ v s c.L .                   ",
"                  . R l.6 H -.,.,.-.@.[ _ / S p ; @ O % 3 g b V P I Y ~ j s c.L .                   ",
"                  . R l.6 D q.B.i. .$.$.-.-.-...] ) K A y = o 9 P I Y ~ k s c.L .                   ",
"                  . R l.6 D r.Z.g. .$.$.$.$.$.$.-.-.-.-.} _ e 8 P U Y ~ x s c.L .                   ",
"                  . R l.6 D r.Z.f. .$.$.$.$.$.$.@.@.$.$.$...t 8 P P Y ~ x s c.L .                   ",
"                  . R l.6 D r.Z.f. .$.$.$.$.$.$.%.@.@.$.$.} t 8 P U Y ~ x s c.L .                   ",
"                  . R l.6 D r.S.g. .$.$.$.$.$.$.@.-.$.$.$.} t 8 P P Y ~ x s c.L .                   ",
"                  . R l.6 D 9.m.u.@.$.$.$.$.$.$.$.$.$.$.$.} t 8 P U Y ~ x s c.L .                   ",
"                  . R l.6 H ,.5.2.$.$.$.$.$.$.$.$.$.$.$.-.} t 8 P P Y ~ x s c.L .                   ",
"                  . R l.6 D q.V.p. .$.$.$.$.$.$.$.$.@.@.@.} t 8 P U Y ~ x s c.L .                   ",
"                  . R l.6 H 7.b.y.@.$.$.$.$.$.$.$.$.-.@.%.} t 8 P P Y ~ x s c.L .                   ",
"                  . R l.6 G 2.9.2.-.@.$.$.$.$.$.$.$.$.$.-.} t 4 P U Y ~ x s c.L .                   ",
"                  . R l.6 D w.V.a. .$.$.$.$.$.$.$.$.$.$.@.} y 8 P P Y ~ x s c.L .                   ",
"                  . R l.6 D 7.x.t.@.$.$.$.$.$.$.$.$.$.$.%.} y 8 P U Y ~ x s c.L .                   ",
"                  . R l.7 G -.@.@.$.$.$.$.$.$.$.$.$.$.$.%.| y 8 P P Y ~ x s c.L .                   ",
"                  . R l.6 H -.$.$.$.$.$.$.$.$.$.$.$.$.$.%.} t 8 P U Y ~ x s c.L .                   ",
"                  . R l.6 H -.$.$.$.$.$.$.$.$.$.$.$.$.$.%.} t 8 P P Y ~ x s c.L .                   ",
"                  . R l.6 H -.$.$.$.$.$.$.$.$.$.$.$.$.$.@.} t 8 P U Y ~ x s c.L .                   ",
"                  . R l.6 H -.$.$.$.$.$.$.$.$.$.$.$.@.$.,.} t 8 P P Y ~ x s c.L .                   ",
"                  . R l.6 H -.$.$.$.$.$.$.$.$.$.$.$.3.M.z.{ t 8 P U Y ~ x s c.L .                   ",
"                  . R l.6 H -.$.$.$.$.$.$.$.$.$.$.$.3.M.g.{ t 8 P P Y ~ x s c.L .                   ",
"                  . R l.6 H -.$.$.$.$.$.$.$.$.$.$.$.$.,.,.| t 8 P U Y ~ x s c.L .                   ",
"                  . R l.6 H -.$.$.$.$.$.$.$.$.$.$.$.$.$.@.| t 8 P P Y ~ x s c.L .                   ",
"                  . R l.6 H -.$.$.$.$.$.$.$.$.$.$.@.@.%.%.} t 4 P U Y ~ x s c.L .                   ",
"                  . R l.6 H -.$.$.$.$.$.$.$.$.$.$.@.-.@.%.} y 8 P P Y ~ x s c.L .                   ",
"                  . R l.6 H -.$.$.$.$.$.$.$.$.$.$.$.@.%.%.} y 8 P U Y ~ x s c.L .                   ",
"                  . R l.6 H -.$.$.$.$.$.$.$.$.$.$.$.%.@.%.| t 8 P P Y ~ x s c.L .                   ",
"                  . R l.6 G -.-.$.$.$.$.$.$.$.$.$.$.$.$.%.} t 8 P I Y ~ x s c.L .                   ",
"                  . R l.6 G -.@.$.$.$.$.$.$.$.$.$.$.$.$.%.} t 8 P I Y ~ x s c.L .                   ",
"                  . R l.6 H -.$.$.$.$.$.$.$.$.$.$.$.$.$.%.} y 8 P I Y ~ x s c.L .                   ",
"                  . R l.6 H -.$.$.$.$.$.$.$.$.$.$.$.$.$.%.| y 8 P I Y ~ x s c.L .                   ",
"                  . R l.6 H -.$.$.$.$.$.$.$.$.$.$.$.$.$.-.} y 8 P I Y ~ k a c.L .                   ",
"                  . R l.6 H -.$.$.$.$.$.$.$.$.$.$.$.$.$.@.} y 8 P I Y ~ v a c.L .                   ",
"                  . R l.6 H -.$.$.$.$.$.$.$.$.$.$.$.$.$.%.} t 8 P I Y ~ k s c.L .                   ",
"                  . R l.6 H -.$.$.$.$.$.$.$.$.$.$.$.$.$.%.} t 4 P I Y ~ k s c.L .                   ",
"                  . R l.6 H -.$.@.@.$.$.$.$.$.$.%.@.@.@.%.| t 8 P I Y ~ x a c.L .                   ",
"                  . R l.6 H -.$.-.@.$.$.$.$.@.-.-.-.-.,.| _ e 8 P I Y ~ x a c.L .                   ",
"                  . R l.6 H -.$.@.%.@.-.-.-.-.,.] ) K A y = o 9 P I Y ~ x a c.L .                   ",
"                  . R l.6 H -.-.-.-.@.[ _ / A p ; @ O $ 4 g b V P I Y ^ x a c.L .                   ",
"                  . R l.6 H ..' ( J Z t & + # 2 q v N C P U U U I I Y ^ x a c.L .                   ",
"                  . R l.6 w i = o . . . $ 4 q h j j j j z z j j j x M V 4 s c.L .                   ",
"                  . R l.d - > > < < < < < < < - < < > < < - < < > > > > - m c.L .                   ",
"                  . R N.j.d.d.d.d.d.d.d.d.d.d.d.d.d.d.d.d.d.d.d.d.d.s.j.d.k.N.L .                   ",
"                  . n ! ! ! ! ! ! ! ! ! ! ! ! ! ! ! ! ! ! ! ! ! W W W ! ! W W d .                   ",
"                  . . . . . . . . . . . . . . . . . . . . . . . . . . . . . . . .                   "
};
