/* XPM */
static char *_534c7db2afb493ef8246d9f89b2bc619kbfvrWxw50EPH4Y[] = {
/* columns rows colors chars-per-pixel */
"50 50 179 2 ",
"   c None",
".  c #000000",
"X  c #0C0303",
"o  c #050B03",
"O  c #050708",
"+  c #070909",
"@  c #0A0D0D",
"#  c #080D05",
"$  c #150406",
"%  c #071004",
"&  c #091405",
"*  c #0B1905",
"=  c #0D1A09",
"-  c #0B0F10",
";  c #0D1213",
":  c #131515",
">  c #111619",
",  c #151A1C",
"<  c #191D1D",
"1  c #240709",
"2  c #2D060A",
"3  c #2B0A0D",
"4  c #3B0A0E",
"5  c #3B1014",
"6  c #0E2406",
"7  c #13250C",
"8  c #152C0C",
"9  c #102607",
"0  c #15370A",
"q  c #182E10",
"w  c #1B3511",
"e  c #1B3913",
"r  c #1A1F21",
"t  c #1A2123",
"y  c #1C262A",
"u  c #1D292C",
"i  c #172025",
"p  c #1F2A30",
"a  c #272C2D",
"s  c #222E31",
"d  c #2A2F30",
"f  c #233135",
"g  c #2A3A3E",
"h  c #2A3538",
"j  c #333B3C",
"k  c #571218",
"l  c #77141B",
"z  c #782229",
"x  c #1B430C",
"c  c #244517",
"v  c #254818",
"b  c #2E5C1D",
"n  c #285716",
"m  c #34721D",
"M  c #2A6613",
"N  c #336321",
"B  c #366A23",
"V  c #3F7A29",
"C  c #3D7528",
"Z  c #293C41",
"A  c #2E4044",
"S  c #2E4348",
"D  c #33464A",
"F  c #354A4D",
"G  c #3A4547",
"H  c #374B51",
"J  c #3A4F54",
"K  c #3D555C",
"L  c #3A5155",
"P  c #424B4C",
"I  c #454F50",
"U  c #415A5E",
"Y  c #455257",
"T  c #515C5D",
"R  c #445B63",
"E  c #535F61",
"W  c #4A676E",
"Q  c #4A676C",
"!  c #5D6A6C",
"~  c #4E6D75",
"^  c #52737C",
"/  c #58727D",
"(  c #667476",
")  c #6D7C7E",
"_  c #687678",
"`  c #80161E",
"'  c #9C1B24",
"]  c #902830",
"[  c #C3212D",
"{  c #D62531",
"}  c #E42734",
"|  c #E82936",
" . c #F12938",
".. c #FE2D3D",
"X. c #CF3A46",
"o. c #E63542",
"O. c #F83846",
"+. c #E8414E",
"@. c #FF404E",
"#. c #FF4453",
"$. c #F44552",
"%. c #3A8D1A",
"&. c #419F1D",
"*. c #44852D",
"=. c #4B9231",
"-. c #529F36",
";. c #48AF20",
":. c #4FBC24",
">. c #50BC27",
",. c #53A137",
"<. c #56A738",
"1. c #57A939",
"2. c #59AD3A",
"3. c #5EB63D",
"4. c #5FB83E",
"5. c #60BA3F",
"6. c #4FC223",
"7. c #52C426",
"8. c #5FC439",
"9. c #5CC534",
"0. c #60C938",
"q. c #64C341",
"w. c #68CB44",
"e. c #66CA41",
"r. c #577A84",
"t. c #617F8B",
"y. c #5E828C",
"u. c #63848E",
"i. c #638691",
"p. c #658A96",
"a. c #678D98",
"s. c #688F9A",
"d. c #7C8D90",
"f. c #6B939C",
"g. c #6E999F",
"h. c #78898C",
"j. c #7194A2",
"k. c #7598A7",
"l. c #789DAC",
"z. c #7DA2B2",
"x. c #7CACB2",
"c. c #7EB0B7",
"v. c #889B9E",
"b. c #8A9DA0",
"n. c #97ADB0",
"m. c #83B7BF",
"M. c #9DB3B6",
"N. c #9EB5B8",
"B. c #A2B9BC",
"V. c #8BC2CA",
"C. c #93CCD4",
"Z. c #99D6DE",
"A. c #AEC7CA",
"S. c #A6C6CA",
"D. c #B1CACD",
"F. c #B4CDD1",
"G. c #B7D1D4",
"H. c #BCD8DB",
"J. c #9DDAE3",
"K. c #A1DFE8",
"L. c #A3E3EC",
"P. c #B3E7EF",
"I. c #A6E7F0",
"U. c #A7E8F1",
"Y. c #ABEAF3",
"T. c #B3ECF4",
"R. c #BDEDF4",
"E. c #C1DCDF",
"W. c #C1DCE0",
"Q. c #C9E6EA",
"!. c #CBE8EC",
"~. c #C2EEF4",
"^. c #CFEDF1",
"/. c #D1EFF3",
"(. c #C2F1F7",
"). c #CCF0F5",
"_. c #D4F2F6",
"`. c #D6F5F9",
"'. c #D8F7FB",
/* pixels */
"                            . .                                     . .                             ",
"                            .                                         .                             ",
"                            .                                         .                             ",
"                          . .                                         . .                           ",
"                          . .                 .     .                 . .                           ",
"                          . .           . . . .     . . . .           . .                           ",
"                            .       . X 3 1 X . . . . X 1 1 X .       .                             ",
"                            .       $ ] o.} l . % % . z o.| ' X       .                             ",
"                            .     . 5 $.O...{ $ B N $ X.#... .4 .     .                             ",
"                            . .   . 3 o.@...[ X *.*.X X.#.O.| 2 .   . .                             ",
"                            . .     . ] O.} k & 1.2.= k o. .` .     . .                             ",
"                              . .   . X 4 2 o V w.w.V o 2 4 X .   . .                               ",
"                                . .   . o e b B b b N n 0 o .   . .                                 ",
"                                  . . . % 7 + - > > + o 6 o . . .                                   ",
"                                    . . . y R r.y.y.^ J i . . .                                     ",
"                                    . + H i.s.a.a.a.a.i.r.Z O .                                     ",
"                                    . D a.s.s.s.s.s.a.s.t.r.f .                                     ",
"                                  . r y.t.r.W R K Y R W r.r.~ > .                                   ",
"                                . . f D > + O @ - ; @ O @ > Z p . .                                 ",
"                              . O . . - Z R r.t.t.t.t.r.R f @ O . O .                               ",
"                      . . . . @ I O s t.z.z.z.z.z.z.z.z.z.k.^ y . F - . . . .                       ",
"                  . . .   . . E b.O r.c.z.z.z.z.z.z.z.z.z.l.s.W + f.U .     . . .                   ",
"                . .       . < D.M.O U b.z.z.z.z.z.z.z.z.z.k.s.H + x.V.> .       . .                 ",
"            . . .         . ( `.F.: + R k.z.z.z.z.z.z.z.z.a.J + : S.Y.~ .         . . .             ",
"          . .           . < D.'.Q.j . O a R t.j.j.k.j.t.R r @ . j Q.T.V., .           . .           ",
"      . . .             . ! _._.`.t.O D y + + > r r > - @ y S + ) `.~.U.W .             . . .       ",
". . . .               . : S.`._.`.D.> Z i.^ K D Z Z Z K R r.f r D.`._.T.m.; .               . . . . ",
"                  . . . I ^._._._._.( O Q f.s.s.a.a.f.p.r.K O ( _._._.R.L.F . . .                   ",
"              . . . . . v.`._._._.`.E.j ; ~ s.a.a.a.p.r.R - Z W.`._._.).Y.g.. . . . .               ",
"            . .     . a E.`._._._._.`.A.f - K y.p.y.r.F - s A.'._._._._.T.C.t .     . .             ",
"          . .       X T ^././.`./.`._.`.S.H O > p y ; O I F.`._._._._._.R.L.U .       . .           ",
"          . .       . v.`.`.`./.`./.`./.T.c.- 7 w q 8 - N.'._._._._._.`.).Y.g..       . .           ",
"          .       . < G.'._._._._._._.~.I.R & 1.q.w.1.= E _._._._._._._./.T.C.D         .           ",
"          .       . G ^._._._._._._.).T.z.@ B w.w.w.w.N - B.`._._._._._._.R.U.K.        .           ",
"          .       . ) `._._._._._._.(.J.A = ,.5.3.4.4.-.= Z Q._._._._._.`.~.U.K.        .           ",
"        . .       O n.`._._._._.`.).Y.p.. . = = = = = = . O d.`._._._._.`.).Y.m.;       . .         ",
"        . .       < G._._._._._._.T.V.7 q N N b N N N N N 8 q D.`._._._._./.T.V.>       . .         ",
"        .       . h Q._._._._._.~.L.H & ,.w.w.w.w.w.w.w.w.,.% Y !._._._._._.P.J.s .       .         ",
"        .       . I _._._._.`.^.Y.y.X C w.w.w.w.w.w.w.w.w.w.m o v._._._._._.R.L.D .       .         ",
"        .       . ! `._._._._.T.x.; v q.w.w.w.w.w.w.w.w.w.w.>.x $ M.`._._._.R.U.U .       .         ",
"      . .       . ( `._._._.R.V.u = <.q.q.q.q.q.q.q.q.q.q.8.6.%.* a F.`._._.~.U.W .       . .       ",
"      .         . ( `._._.(.C.g . o q q q q q q q q q q q 8 0 0 o . G H.`._.~.Y.W .         .       ",
"    . .         . T _._.(.C.A . . . = c c c c c c c c c c x x * . . . P H.`.R.I.U .         . .     ",
"  . .           . a H.R.x.f .     . 7 3.w.w.w.w.w.q.w.w.9.6.;.9 .     . j N.P.Z.f .           . .   ",
". .               O G L - .         o =.w.w.w.w.w.w.w.w.7.7.M .         . ; H F .               . . ",
"                    . . .             5.w.w.w.w.q.w.w.9.7.%.& .           . . .                     ",
"                                        V 1.w.w.w.w.9.7.&.9 .                                       ",
"                                        . 7 *.q.w.8.:.%.6 .                                         ",
"                                          . o w b n 0 o .                                           ",
"                                              . . . .                                               "
};
