/* XPM */
static char *_f7200c2b4a4496c9f6109f7014946fbnHXpRJcPKJVefCDg[] = {
/* columns rows colors chars-per-pixel */
"50 50 134 2 ",
"   c None",
".  c #171F25",
"X  c #3D1F2F",
"o  c #1B2227",
"O  c #2B2427",
"+  c #222128",
"@  c #25292B",
"#  c #2A2C2D",
"$  c #33202C",
"%  c #2C373E",
"&  c #32383E",
"*  c #3B393E",
"=  c #452627",
"-  c #433A3D",
";  c #4D3B3D",
":  c #563C3E",
">  c #662825",
",  c #6F2A25",
"<  c #6D242D",
"1  c #762A26",
"2  c #7B2A25",
"3  c #7F2F29",
"4  c #703830",
"5  c #7C413D",
"6  c #353E42",
"7  c #3A4145",
"8  c #594D41",
"9  c #5E544A",
"0  c #685647",
"q  c #685748",
"w  c #6C6154",
"e  c #66625A",
"r  c #6A6963",
"t  c #736C61",
"y  c #78766E",
"u  c #952430",
"i  c #972831",
"p  c #8D3D37",
"a  c #8D3F3A",
"s  c #83413E",
"d  c #8E423D",
"f  c #90433E",
"g  c #994B3B",
"h  c #A6443C",
"j  c #A9463D",
"k  c #BA483A",
"l  c #DE4D39",
"z  c #E14E38",
"x  c #EF4C3A",
"c  c #F54A3A",
"v  c #F35038",
"b  c #F95038",
"n  c #AE1547",
"m  c #D2124F",
"M  c #D51250",
"N  c #EE0F56",
"B  c #E31152",
"V  c #EC1055",
"C  c #E61850",
"Z  c #ED1852",
"A  c #F01056",
"S  c #954740",
"D  c #954841",
"F  c #9B4C43",
"G  c #82514A",
"H  c #A25347",
"J  c #A55845",
"K  c #A65649",
"L  c #A65848",
"P  c #AB5A4B",
"I  c #947459",
"U  c #AE604C",
"Y  c #B2664E",
"T  c #B4684F",
"R  c #AA6556",
"E  c #B36451",
"W  c #B66B51",
"Q  c #BA6D54",
"!  c #BE7354",
"~  c #B6725C",
"^  c #C17755",
"/  c #C57C57",
"(  c #C3765C",
")  c #C67E59",
"_  c #9E8B75",
"`  c #CA835D",
"'  c #CC8562",
"]  c #CE8A65",
"[  c #C4856D",
"{  c #C9866B",
"}  c #D08964",
"|  c #D5956D",
" . c #DB936C",
".. c #CE8D71",
"X. c #C99970",
"o. c #D49577",
"O. c #DC9F76",
"+. c #D59778",
"@. c #D69879",
"#. c #DC9E7B",
"$. c #E59F74",
"%. c #DAA27E",
"&. c #E4A077",
"*. c #ECA779",
"=. c #F2AE7D",
"-. c #CDAE8D",
";. c #DAA483",
":. c #DEA985",
">. c #E4AB81",
",. c #E2AD89",
"<. c #E2B18D",
"1. c #EDB88C",
"2. c #F6B581",
"3. c #F9B682",
"4. c #FFBD86",
"5. c #FDBF8A",
"6. c #E7B792",
"7. c #EDBA92",
"8. c #F1BF93",
"9. c #FFC18C",
"0. c #F4C396",
"q. c #FFC592",
"w. c #F6C79B",
"e. c #F7C99E",
"r. c #FCCC9D",
"t. c #F6CCA0",
"y. c #FACDA0",
"u. c #FED2A4",
"i. c #F4D1AD",
"p. c #FDD5AA",
"a. c #FEDAB0",
"s. c #FDDEBA",
"d. c #FEE1BD",
"f. c #FFE5C2",
/* pixels */
"                % & %                                                         o o o                 ",
"                % % % %               %                     o               o o + o                 ",
"                % % % % % %         % 6 % %             o o o o         o o o o o o                 ",
"                    % % % %         % % % % %         o o o o o         o o o o                     ",
"                      % % % %           % & - ;     X $ + o           o o o o                       ",
"                        % % % %           k z z x C M M n           o o o o                         ",
"                          % % %         b b b b c A A A A A         o o o                           ",
"                          % % % %     b b b b b c Z V V V V V     o o o o                           ",
"                            % % %     b b b b b c A V V V V V     o o o                             ",
"                            % % % %     b b b b c Z N V V V     o o o o                             ",
"                              % % % %   x v v v c Z B V V B   o o o o                               ",
"                                % % % % 5 j j j h i u u u < o o o o                                 ",
"                                  % % * s d f d d 2 2 1 2 , O o o                                   ",
"                                    % : d f f f p 2 2 2 2 2 = o                                     ",
"                                      d f f f f a 2 2 2 2 2 1                                       ",
"                                      5 f f f d d 2 2 2 2 2 >                                       ",
"                                % % 7 0 f f f f a 3 2 2 2 2 4 + o o                                 ",
"                              % % % t { d f f f a 2 2 2 2 2 W q . o o                               ",
"                            % % 6 7 -.,.S d f f a 2 2 2 2 3  .X.# o o o                             ",
"                      % % % % % % _ y.y.R d f f a 3 2 2 2 g 2.4.I o o o o o o                       ",
"                % % % % % % % %   u.u.u.;.D f f a 2 2 2 2 } 9.4.4.  o o o o o o o o                 ",
"      % % % & % % % % % % %       u.u.u.y.~ f f a 2 2 2 J 3.4.4.4.      o o o o o o o o o o o       ",
"      % % % % % % % % %         u.u.u.u.y.' L D a u 3 p W 3.4.4.4.4.        o o o o o o o o o       ",
"        % % % %                 u.u.u.u.0.` ! P J s f H E =.4.4.4.4.                o o o o         ",
"                              u.u.u.u.u.1./ / T J d F P P $.5.4.4.4.4.                              ",
"                              u.u.u.u.u.>./ / ! P f K P P  .4.4.4.4.4.                              ",
"                            u.u.u.u.u.u.%./ / / U D P P K ' 4.4.4.4.4.4.                            ",
"                            u.u.u.u.u.r.| / / ` T J P P K ( 4.4.4.4.4.4.                            ",
"                            u.u.u.u.u.r.} / / / Q K P P P Q 3.4.4.4.4.4.                            ",
"                          u.u.u.u.u.u.w.` / / / ! P P P P E =.5.4.4.4.4.4.                          ",
"                          u.u.u.u.u.u.0.` / / / ^ P P P P Y *.4.4.4.4.4.4.                          ",
"                          u.u.u.u.u.u.1.) / / / ( U P P P P $.5.4.4.4.4.4.                          ",
"                        u.u.u.u.u.u.p.1.` / / / ! U P P P P #.9.4.4.4.4.4.4.                        ",
"                        u.u.u.u.u.u.d.<.! / / / ^ U P P P K @.r.4.4.4.4.4.4.                        ",
"                        u.u.u.u.u.a.f.:./ / / / ! P P P P P ..u.q.4.4.4.4.4.                        ",
"                      u.u.u.u.u.a.d.f.%./ / / ` ! P P P P P { u.u.9.4.4.4.4.4.                      ",
"                      u.u.u.u.p.d.f.f.;./ ) / / ! P P P P P { u.u.r.9.4.4.4.4.                      ",
"                      u.u.u.u.d.f.f.f.<./ / / / ! P P P P P @.u.u.u.r.4.4.4.9.                      ",
"                      u.u.u.d.f.f.f.f.i.' / / ) W J P P P E 7.u.u.u.u.r.4.4.4.                      ",
"                    t t.p.d.d.f.f.f.f.d.<./ / ) W J P P P o.u.u.u.u.u.u.r.9.=.q                     ",
"                % % e i.d.f.f.f.f.f.f.f.s.%.^ / Y F P P { e.u.u.u.u.u.u.u.r.5.8 o o                 ",
"        % % % % % % r s.f.f.f.f.f.f.f.f.f.s.%./ P F K { w.u.u.u.u.u.u.u.u.u.t.9 . o o o o o         ",
"      % % % % % % % y f.f.f.f.f.f.f.f.f.f.f.s.;.P D ..y.u.u.u.u.u.u.u.u.u.u.u.w . o o o o o o       ",
"      % % % % %       f.f.f.f.f.f.f.f.f.f.f.f.f.    y.u.u.u.u.u.u.u.u.u.u.u.u.      o o o o o       ",
"                      f.f.f.f.f.f.f.f.f.f.f.f.        u.u.u.u.u.u.u.u.u.u.u.u.                      ",
"                      f.f.f.f.f.f.f.f.f.f.f.            u.u.u.u.u.u.u.u.u.u.u.                      ",
"                        f.f.f.f.f.f.f.f.f.f.            u.u.u.u.u.u.u.u.u.u.                        ",
"                        f.f.f.f.f.f.f.f.f.                u.u.u.u.u.u.u.u.u.                        ",
"                          f.f.f.f.f.f.f.                    u.u.u.u.u.u.u.                          ",
"                            f.f.f.f.                            u.u.u.u.                            "
};
