/* XPM */
static char *ece4a14e47714c7098b8094ed0306982QWk68mQ8c5wv3P2n[] = {
/* columns rows colors chars-per-pixel */
"50 50 126 2 ",
"   c None",
".  c #010100",
"X  c #060804",
"o  c #090C06",
"O  c #0C0E09",
"+  c #0E110A",
"@  c #10160A",
"#  c #141B0D",
"$  c #0D0E10",
"%  c #121416",
"&  c #191E12",
"*  c #18191C",
"=  c #19230F",
"-  c #1C2313",
";  c #1E2812",
":  c #212A16",
">  c #232B19",
",  c #243115",
"<  c #253118",
"1  c #2A361D",
"2  c #2C3A1C",
"3  c #2E3820",
"4  c #313C23",
"5  c #354423",
"6  c #3A4E24",
"7  c #394628",
"8  c #3C4A2A",
"9  c #3E5426",
"0  c #3E5229",
"q  c #435C27",
"w  c #475E2E",
"e  c #465531",
"r  c #4E5F37",
"t  c #48622E",
"y  c #4D6434",
"u  c #4F6138",
"i  c #526D35",
"p  c #52653A",
"a  c #566A3D",
"s  c #596D3F",
"d  c #557435",
"f  c #577439",
"g  c #5A773A",
"h  c #5E7D3D",
"j  c #383C42",
"k  c #464C54",
"l  c #5E7443",
"z  c #607644",
"x  c #657C47",
"c  c #61813F",
"v  c #658B3B",
"b  c #6A923E",
"n  c #658642",
"m  c #678843",
"M  c #6B844C",
"N  c #6E9147",
"B  c #6F9448",
"V  c #719549",
"C  c #759B4C",
"Z  c #789F4E",
"A  c #738E52",
"S  c #769153",
"D  c #7E9B59",
"F  c #7AA847",
"G  c #7EAE4A",
"H  c #7CA551",
"J  c #819F5B",
"K  c #82B34C",
"L  c #88BB4F",
"P  c #82AB54",
"I  c #84A25D",
"U  c #89BC50",
"Y  c #87B358",
"T  c #89B659",
"R  c #8DBB5C",
"E  c #8BAB62",
"W  c #90B166",
"Q  c #94B669",
"!  c #96B96A",
"~  c #98BB6B",
"^  c #8DC353",
"/  c #92C15F",
"(  c #95C661",
")  c #9DCF66",
"_  c #9CCE65",
"`  c #99CA63",
"'  c #9DC06E",
"]  c #9DC06F",
"[  c #9DD066",
"{  c #9ED166",
"}  c #9FD367",
"|  c #9FC370",
" . c #A0D368",
".. c #A0D468",
"X. c #A0D568",
"o. c #A1D568",
"O. c #A1D569",
"+. c #A1D669",
"@. c #A2D669",
"#. c #A2D769",
"$. c #A2D76A",
"%. c #A3D76A",
"&. c #A2D769",
"*. c #A3D86A",
"=. c #A4D96B",
"-. c #A4DA6B",
";. c #A3D86A",
":. c #A1C672",
">. c #A3C873",
",. c #A4CA74",
"<. c #A5CB74",
"1. c #A5CB75",
"2. c #A6CC75",
"3. c #A7CD76",
"4. c #A8CE77",
"5. c #A8CE76",
"6. c #ADD57A",
"7. c #AED57A",
"8. c #AED57B",
"9. c #ABD279",
"0. c #B0D87C",
"q. c #B1D97D",
"w. c #B2DB7E",
"e. c #B4DD7F",
"r. c #B6E081",
"t. c #B9E383",
/* pixels */
"                                                                                                    ",
"                                                                                                    ",
"            .                             .             .                             .             ",
"          . . .                           . .         . .                           . . .           ",
"        . . . . .                         . .         . .                         . . . . .         ",
"      . .       . .                         . .     . .                         . .       . .       ",
"      . .         . .                   . . . . + + . . . .                   . .         . .       ",
"    . .           . . .               . O $ . r Q Q r . $ O .               . . .           . .     ",
"  . .             . - X .             . j k . M t.t.M . k j .             . X - .             . .   ",
". .               X C d X .           . % * O I r.r.I o * % .           . X i Z X               . . ",
"                  X H  .i X .           . . l 8.r.e.q.s . .           . X i [ H o                   ",
"                  X V *._ i X .           . l r.e.e.r.z .           . X i _ *.V X                   ",
"                  . y } X.[ i X .     . . . > >.q.q.,.> . . .     . X i [ X.X.y .                   ",
"                  . # Y #.X.[ g # . . # 0 6 X 3 7 7 3 X 6 0 # . . # g _ X.X.Y # .                   ",
"                    . 5 / X.X.X.T N V R ( 5 X ; ; ; ; X 5 ( R B N T  .X.;./ 5 .                     ",
"                      . 1 C ` X.@._ Y h 3 . i ` ` ` ( i X 2 h Y [ X.X.` C 1 .                       ",
"                        . o < 0 0 1 + . . 1 ( @.} } } ` 1 . . + 1 0 0 < o .                         ",
"                            . . . . . . . n *.} } @.} *.n . . . . . . .                             ",
"                                        o P *.} } } @.*.P o                                         ",
"                                      . X Z @.@.@.} } -.Z X .                                       ",
"                        . o O + + O + + . t [ } X.X.X.} t . O + + O + + X .                         ",
"                      . 7 E ~ ! ~ ~ ! ! 8 + H *.*.*.-.H + 8 ! ! ~ ~ ~ ~ E 8 .                       ",
"                    . 3 ,.! A A A S A S p . < n m m c > X p S A S A S A Q ,.3 .                     ",
"                  . # W ] > . . . . . . . . . X . . X . . . . . . . . . > ~ E # .                   ",
"                . X A 7.8 .             . X 9 v = = v 9 X .             . 8 7.A X .                 ",
"                . u q.l .               . 6 L L , , ^ L 6 .               . z q.r .                 ",
"              . 3 ,.J O .             . , K ^ L , : L ^ K < .             . O J 3.3 .               ",
"            . # Q ~ : .             . . q ^ ^ L , , L ^ ^ q . .             . : ~ W # .             ",
"          . X A 7.8 .           . . . o = F ^ L , , L ^ F # o X . .           . 8 7.A X .           ",
"          . r 8.z .           . o . : h X t ^ L , , L ^ t X h ; . o .           X z 8.r .           ",
"        . 3 3.J O .       . X 8 i X g _ 2 # F L ; , L G # 2 _ g X p 8 X .       . O I 3.1 .         ",
"        . e E > .     . . > A 8.e + T *.v X d ^ , , ^ d X m *.T + e 9.A > . .     . > E e .         ",
"        . X + .     . + a :.4.z o 5 } @.( - , K , , K 2 - ( } [ 5 O l 4.>.a + .     . + X .         ",
"            .     . - E q.D 1 . . f $.} } y o b , , b X y } } *.f . . 1 D q.E - .     .             ",
"                  . x 4.e o . . . B -.@.@.H X q , , t X H @.} -.B . . . X e 4.x .                   ",
"                  . S ! O .     X Z $.} } ` < ; ; ; ; , ` @.} $.Z X     . O ~ A .                   ",
"                  . l ,.- .     X Z @.} } @.y X o + X y X.} @.$.Z X     . - ,.z .                   ",
"                  . e 7.3 .     . m $.} } } C X . X X C @.X.} @.n .     . 3 7.e .                   ",
"                  . 3 8.e .     . w @.} } *.R # . . # R @.} } } w .     . e 9.4 .                   ",
"                  . - ,.l .     . ; ( *.} } _ 2 . . 2 _ } @.@.( ; .     . l ,.- .                   ",
"                    O ! S .       X n @.} } @.t . . w @.} } @.n X       . S ~ O                     ",
"                    X I E o       . > / @.X.*.c . . n $.@.} ( , .       o E I X                     ",
"                    . M | # .       . y [ @.@.Z X X Z $.} } y .       . # | M .                     ",
"                    . p 4.> .       . O N *.@.P o o P @.@.B o .       . > 4.p .                     ",
"                  . & D :.& .         . # H #.R # # R *.H # .         . & :.J & .                   ",
"                . 4 Q 8.p .             . ; G ` - - ` H - .             . p 9.Q 4 .                 ",
"              . 4 4.~ 7 . .               . = B > ; N - .               . . 7 ~ 4.4 .               ",
"              . > z ; .                     . @ O O + .                     . ; z : .               ",
"                . . .                         . . . .                         . . .                 ",
"                                                                                                    "
};
