/* XPM */
static char *result[] = {
/* columns rows colors chars-per-pixel */
"50 50 114 2 ",
"   c #010000",
".  c #0A0705",
"X  c #0D0906",
"o  c #0F0A08",
"O  c #110C07",
"+  c #140C0A",
"@  c #190F0D",
"#  c #17100A",
"$  c #1B120D",
"%  c #1F1410",
"&  c #21170E",
"*  c #23180F",
"=  c #241612",
"-  c #261814",
";  c #2B1B15",
":  c #2F1D18",
">  c #311F19",
",  c #352315",
"<  c #392617",
"1  c #34221A",
"2  c #3B261E",
"3  c #3E2720",
"4  c #3E2820",
"5  c #422C1E",
"6  c #45301F",
"7  c #4D341E",
"8  c #442B23",
"9  c #4A2E25",
"0  c #463120",
"q  c #4D3524",
"w  c #4E3128",
"e  c #573D27",
"r  c #5A3D24",
"t  c #53342A",
"y  c #58372D",
"u  c #5A392E",
"i  c #5E3C31",
"p  c #663C2E",
"a  c #683D2F",
"s  c #633E32",
"d  c #5D412A",
"f  c #624126",
"g  c #67482E",
"h  c #704B2B",
"j  c #664135",
"k  c #6B4337",
"l  c #6E4D32",
"z  c #6E4538",
"x  c #704639",
"c  c #754A3C",
"v  c #794C3E",
"b  c #745031",
"n  c #7A5637",
"m  c #7D4F40",
"M  c #7F5041",
"N  c #885B35",
"B  c #805A3A",
"V  c #895E39",
"C  c #8B613F",
"Z  c #9D693D",
"A  c #A26D3F",
"S  c #855343",
"D  c #8A5646",
"F  c #8E5949",
"G  c #935744",
"H  c #945D4C",
"J  c #985F4E",
"K  c #946842",
"L  c #9B6C46",
"P  c #9A614F",
"I  c #9D6351",
"U  c #A56F40",
"Y  c #A7644F",
"T  c #A57144",
"R  c #A87142",
"E  c #A8764C",
"W  c #B67C4B",
"Q  c #A16553",
"!  c #A76956",
"~  c #AA6B57",
"^  c #AD6C59",
"/  c #B56B54",
"(  c #B06E5A",
")  c #B96F58",
"_  c #B67F51",
"`  c #B4715C",
"'  c #BB725A",
"]  c #BC7660",
"[  c #C27A63",
"{  c #C97E67",
"}  c #CB7F68",
"|  c #BE804A",
" . c #BC8355",
".. c #C1834D",
"X. c #CA884F",
"o. c #C08756",
"O. c #C28857",
"+. c #CB8950",
"@. c #C78C5A",
"#. c #CA8D5B",
"$. c #CF915D",
"%. c #DA955A",
"&. c #CC8069",
"*. c #D69660",
"=. c #E29F66",
"-. c #EBA265",
";. c #EEA76B",
":. c #EFA86C",
">. c #F1A769",
",. c #F4AB6D",
"<. c #F9AE6F",
"1. c #FAAF70",
"2. c #FBB071",
"3. c None",
/* pixels */
"3.3.3.3.3.3.3.3.3.3.3.3.3.3.3.3.3.3.3.3.3.3.3.3.3.3.3.3.3.3.3.3.3.3.3.3.3.3.3.3.3.3.3.3.3.3.3.3.3.3.",
"3.3.3.3.3.3.3.3.3.3.3.3.3.3.3.3.3.3.3.3.3.3.3.3.3.3.3.3.3.3.3.3.3.3.3.3.3.3.3.3.3.3.3.3.3.3.3.3.3.3.",
"3.3.3.3.3.3.3.3.3.3.3.3.3.3.3.3.3.3.3.3.3.3.3.3.                                3.3.3.3.3.3.3.3.3.3.",
"3.3.3.3.3.3.3.3.3.3.3.3.3.3.3.3.3.3.3.3.3.3.3.3.. 9 k k k k k k k k k k k z i O   3.3.3.3.3.3.3.3.3.",
"3.3.3.3.3.3.3.3.3.3.3.3.3.3.3.3.3.3.3.3.3.3.3.  = ] [ ( ^ ^ ^ ( ^ ( ( ^ ( ^ Q =   3.3.3.3.3.3.3.3.3.",
"3.3.3.3.3.3.                    3.3.3.3.3.3.3.  9 [ 8 + @ @ + @ + @ @ + @ @ O   3.3.3.3.3.3.3.3.3.3.",
"3.3.3.3.  . = = - - = - = = = = .   3.3.3.3.3.  v ^ +   3.3.3.3.3.3.3.3.3.3.3.3.3.3.3.3.3.3.3.3.3.3.",
"3.3.3.3.  9 ] ] ] ] ] ] ] ] ] ] 9   3.3.3.3.3.. I D   3.3.3.3.3.3.3.3.3.3.3.3.3.3.3.3.3.3.3.3.3.3.3.",
"3.3.3.3.  $ w t w t w t t w u ` F   3.3.3.3.  = ] i   3.  . O O + O + + O o + + O + + O O + + X     ",
"3.3.3.3.3.                    z ` $   3.3.3.3.D ] 1   3.  j ^ ^ ^ ^ ^ ^ ^ ^ ^ ^ ^ ^ ^ ^ ^ ^ ^ ~ 4   ",
"3.3.3.3.3.3.3.3.3.3.3.3.3.3.  2 [ 8   3.3.3.3.&.^ @     : ] J z z x x x x x x z x x z x z x x z =   ",
"3.3.3.3.3.3.3.3.3.3.3.3.3.3.  @ ^ c   3.3.3.D &.D     . D ^ %                                     3.",
"3.3.                    3.3.3.  S ~ X 3.3.  : [ i     3 [ i   3.3.3.3.3.3.3.3.3.3.3.3.3.3.3.3.3.3.3.",
"    @ @ @ @ @ $ @ @ @ @ .   3.  w ] >   3.  8 ] 1   X I Q O   3.3.3.3.3.3.3.3.3.3.3.3.3.3.3.3.3.3.3.",
"  8 ^ ` ` ` ` ` ` ` ` ` D @     = ] j   3.  x ( @   t [ 9   3.3.3.3.3.3.3.3.3.3.3.3.3.3.3.3.3.3.3.3.",
"  = i s s s s s s s s c ] D .     H H .   . I F   @ ~ F .   3.3.3.3.3.3.3.3.3.3.3.3.3.3.3.3.3.3.3.3.",
"3.                      y [ c     s ] =   = ] s   j [ 1       X L 2.:.d o     3.3.3.3.3.3.3.3.3.3.3.",
"3.3.3.3.3.3.3.3.3.3.3.    k [ s   : I 3   1 H ; O F x     # l O.:.2.2.;.@.n $   3.3.3.3.3.3.3.3.3.3.",
"3.3.3.3.3.3.3.3.3.3.3.3.  . v F O   .       .     .     2 O.2.2.2.2.2.2.2.2.$.0   3.3.3.3.3.3.3.3.3.",
"3.3.3.3.3.3.3.3.3.3.3.3.    . . @ t z v m c x m m y   2 *.2.2.2.2.2.2.2.2.2.2.-.0   3.3.3.3.3.3.3.3.",
"3.3.3.3.3.3.3.3.  . . . o .   8 ! { &.} &.&.&.&.&.y o  .2.2.2.2.2.1.2.1.2.2.2.2.$.&   3.3.3.3.3.3.3.",
"3.3.3.3.3.3.3.  . C @.$.E O 1 ` { { { { { { { { ! o g 1.2.2.2.2.2.2.2.2.2.2.2.2.2.n   3.3.3.3.3.3.3.",
"3.3.3.3.3.3.3.  < -.<.<.K . F &.{ { { { { { { &.c .  .2.2.2.2.2.1.2.1.2.2.1.2.2.2.$.#   3.3.3.3.3.3.",
"3.3.3.3.3.3.3.  $ A X.X.7 $ ` &.{ { { { { { { { w % -.2.2.2.2.2.2.2.2.2.2.2.1.2.2.,.<   3.3.3.3.3.3.",
"3.3.3.3.3.3.3.3.  # , , . : [ &.{ { { { { { { { 4 < :.2.2.2.2.2.2.2.2.1.2.2.2.2.2.<.q   3.3.3.3.3.3.",
"3.3.3.3.3.3.3.3.  $ 5 6 O : ] { { { { { { { { { 4 < :.2.2.2.2.2.2.2.2.2.1.2.1.2.2.<.q   3.3.3.3.3.3.",
"3.3.3.3.3.3.3.  $ #.<.<.d # ' &.{ { { { { { { } w % =.2.2.2.2.2.2.2.2.2.2.2.1.2.2.;.,   3.3.3.3.3.3.",
"3.3.3.3.3.3.3.  , %.-.-.C . S { { { { { { { } &.m .  .2.2.2.2.2.2.2.2.2.2.2.2.2.<.$.@   3.3.3.3.3.3.",
"3.3.3.3.3.3.3.  . h A A N O ; Y [ [ } { { { { } ! . d ,.2.2.2.2.2.2.2.2.2.2.2.2.<.b   3.3.3.3.3.3.3.",
"3.3.3.3.3.3.3.3.    . X X     > C / ) ) ' ' ' ) ) 7 X T ,.2.2.2.2.2.2.2.2.2.2.<.| #   3.3.3.3.3.3.3.",
"3.3.3.3.3.3.3.3.3.3.3.3.    . . + 5 p p p p p p j 7   ; | -.1.2.2.2.2.2.2.2.>...<   3.3.3.3.3.3.3.3.",
"3.3.3.3.3.3.3.3.3.3.3.3.  . 9 y .   . .     .     .     - Z %.-.>.>.<.>.-.%.R ,   3.3.3.3.3.3.3.3.3.",
"3.3.3.3.3.3.3.3.3.3.3.    4 m 3   $ s =   % s $ . y 8     O r Z W X.X...A f #   3.3.3.3.3.3.3.3.3.3.",
"3.                      1 m 9     2 c @   @ x 2   8 v =       . * , , * .     3.3.3.3.3.3.3.3.3.3.3.",
"  + 2 4 4 4 4 4 3 4 3 9 c t .     i s     . i u   . j u .   3.3.        3.3.3.3.3.3.3.3.3.3.3.3.3.3.",
"  ; z x x x x x x z x x y X     @ x 3   3.  8 z X   1 v :   3.3.3.3.3.3.3.3.3.3.3.3.3.3.3.3.3.3.3.3.",
"    . O O X X X X X O X .   3.  : c =   3.  ; v =   . i j .   3.3.3.3.3.3.3.3.3.3.3.3.3.3.3.3.3.3.3.",
"3.3.                    3.3.3.  t j . 3.3.  @ x 2     ; v 2   3.3.3.3.3.3.3.3.3.3.3.3.3.3.3.3.3.3.3.",
"3.3.3.3.3.3.3.3.3.3.3.3.3.3.  . k w   3.3.3.. i y       t z +                                     3.",
"3.3.3.3.3.3.3.3.3.3.3.3.3.3.  - c ;   3.3.3.  9 z .     % x i 8 9 8 8 9 8 8 8 9 8 8 8 9 8 8 8 8 @   ",
"3.3.3.3.3.                    8 x O   3.3.3.  ; c =   3.  8 z z k z k z z z k k z z z z k z k k -   ",
"3.3.3.3.  X > 1 > 1 > > 1 > 2 z u   3.3.3.3.  @ x 2   3.    . . . . . . . . . . . . . . . . . .     ",
"3.3.3.3.  : x c c m m m m x c x >   3.3.3.3.3.. s y   3.3.3.3.3.3.3.3.3.3.3.3.3.3.3.3.3.3.3.3.3.3.3.",
"3.3.3.3.  . @ @ % y M m 2 @ @ @     3.3.3.3.3.  9 k .   3.3.3.3.3.3.3.3.3.3.3.3.3.3.3.3.3.3.3.3.3.3.",
"3.3.3.3.3.3.      3.3.3.3.      3.3.3.3.3.3.3.  : v : . . X X X X X X X . . .   3.3.3.3.3.3.3.3.3.3.",
"3.3.3.3.3.3.3.3.3.3.3.3.3.3.3.3.3.3.3.3.3.3.3.  @ x v z k k x z z z z z z k j @   3.3.3.3.3.3.3.3.3.",
"3.3.3.3.3.3.3.3.3.3.3.3.3.3.3.3.3.3.3.3.3.3.3.3.  > 8 8 8 8 8 8 8 8 8 8 8 8 2 .   3.3.3.3.3.3.3.3.3.",
"3.3.3.3.3.3.3.3.3.3.3.3.3.3.3.3.3.3.3.3.3.3.3.3.                                3.3.3.3.3.3.3.3.3.3.",
"3.3.3.3.3.3.3.3.3.3.3.3.3.3.3.3.3.3.3.3.3.3.3.3.3.3.3.3.3.3.3.3.3.3.3.3.3.3.3.3.3.3.3.3.3.3.3.3.3.3.",
"3.3.3.3.3.3.3.3.3.3.3.3.3.3.3.3.3.3.3.3.3.3.3.3.3.3.3.3.3.3.3.3.3.3.3.3.3.3.3.3.3.3.3.3.3.3.3.3.3.3."
};
