/* XPM */
static char *ae1aef5664554552d18ecc7afc3926c9KgtqKMTvCDuhwHYG[] = {
/* columns rows colors chars-per-pixel */
"50 50 192 2 ",
"   c None",
".  c #792925",
"X  c #7A2924",
"o  c #7A2925",
"O  c #7B2A25",
"+  c #7C2B25",
"@  c #7C2B26",
"#  c #7C2C27",
"$  c #7E2D27",
"%  c #7F2F2A",
"&  c #822F26",
"*  c #802F29",
"=  c #873227",
"-  c #813029",
";  c #83322B",
":  c #81312C",
">  c #83332C",
",  c #83332E",
"<  c #84342D",
"1  c #993E2B",
"2  c #9B3F2B",
"3  c #873833",
"4  c #8A3C37",
"5  c #8B3C37",
"6  c #893C38",
"7  c #8B3D38",
"8  c #8F423D",
"9  c #8F423E",
"0  c #8F433E",
"q  c #90423C",
"w  c #90433E",
"e  c #91433E",
"r  c #91443E",
"t  c #90443F",
"y  c #92443F",
"u  c #93463F",
"i  c #96473F",
"p  c #994A3F",
"a  c #9E4B3E",
"s  c #A5462D",
"d  c #B24E2F",
"f  c #A84D37",
"g  c #CD6034",
"h  c #DE6A37",
"j  c #E77039",
"k  c #EF753B",
"l  c #E8733E",
"z  c #E9743E",
"x  c #F4783B",
"c  c #F77C3E",
"v  c #FB7D3D",
"b  c #F87C3E",
"n  c #F97C3E",
"m  c #FA7D3E",
"M  c #FC7E3D",
"N  c #FD7E3D",
"B  c #FD7F3D",
"V  c #FE7E3D",
"C  c #FE7F3D",
"Z  c #FF7F3D",
"A  c #FE7F3E",
"S  c #944840",
"D  c #964841",
"F  c #964941",
"G  c #984942",
"H  c #994B42",
"J  c #984C42",
"K  c #994C42",
"L  c #994C43",
"P  c #994D43",
"I  c #9D4C40",
"U  c #9F5045",
"Y  c #A25144",
"T  c #A25247",
"R  c #A35347",
"E  c #A55446",
"W  c #A45447",
"Q  c #A65547",
"!  c #A95642",
"~  c #AA5742",
"^  c #A35348",
"/  c #A45448",
"(  c #A65648",
")  c #AA594B",
"_  c #AA5A4A",
"`  c #AA5A4B",
"'  c #AB5A4B",
"]  c #AB5B4B",
"[  c #AC5A4B",
"{  c #AC5B4B",
"}  c #AD5B4B",
"|  c #AB5A4C",
" . c #AC5B4C",
".. c #AD5E4D",
"X. c #AE5E4C",
"o. c #AE5E4D",
"O. c #AF5F4D",
"+. c #B65B41",
"@. c #B25E43",
"#. c #B05C4A",
"$. c #B15D4A",
"%. c #B65F49",
"&. c #B45E4A",
"*. c #B05F4C",
"=. c #BD6645",
"-. c #B5624C",
";. c #B3644F",
":. c #BB6148",
">. c #B96448",
",. c #BE654A",
"<. c #BF664A",
"1. c #B46A4F",
"2. c #BB6F53",
"3. c #BA7052",
"4. c #BE7554",
"5. c #BF7554",
"6. c #C36547",
"7. c #C46547",
"8. c #C76747",
"9. c #CE6A45",
"0. c #D76E44",
"q. c #DC7043",
"w. c #DB7044",
"e. c #D57849",
"r. c #C27855",
"t. c #C37855",
"y. c #C17856",
"u. c #C27856",
"i. c #C47B57",
"p. c #C47C57",
"a. c #C57C57",
"s. c #C57D57",
"d. c #C67C57",
"f. c #C67D57",
"g. c #C77D57",
"h. c #C87850",
"j. c #C87D57",
"k. c #C97E56",
"l. c #C97E57",
"z. c #CB7F56",
"x. c #CD7D54",
"c. c #CF7E54",
"v. c #E27242",
"b. c #E37342",
"n. c #E47342",
"m. c #E67441",
"M. c #E67743",
"N. c #E97641",
"B. c #EC7740",
"V. c #EF7840",
"C. c #F77E40",
"Z. c #F87F40",
"A. c #FB803F",
"S. c #FD813F",
"D. c #FF803E",
"F. c #FE823F",
"G. c #FF823F",
"H. c #CD8056",
"J. c #D08255",
"K. c #D58455",
"L. c #D68455",
"P. c #D88554",
"I. c #DC8854",
"U. c #E3834B",
"Y. c #EB894C",
"T. c #ED8D4F",
"R. c #EE8C4E",
"E. c #EF8D4E",
"W. c #F28F4D",
"Q. c #F38F4D",
"!. c #F6934E",
"~. c #F9934E",
"^. c #FB944D",
"/. c #FB974F",
"(. c #FC944D",
"). c #FF964D",
"_. c #FD974F",
"`. c #FD984F",
"'. c #FE984F",
"]. c #FF994F",
"[. c #FF9A4F",
"{. c #E48C53",
"}. c #E58D53",
"|. c #E78D52",
" X c #EB8F52",
".X c #EC8F52",
"XX c #EE9151",
"oX c #ED9052",
"OX c #F09251",
"+X c #F29251",
"@X c #F49450",
"#X c #FB9750",
/* pixels */
"                                                                                                    ",
"                                                                                                    ",
"                          w w                                         O O                           ",
"                          w w w                                     O O O                           ",
"                          w w w                                     O O O                           ",
"                        w w w                                         O O O                         ",
"                        w w w                                         O O O                         ",
"                        w w w           w w             O O           O O O                         ",
"                        w w w         w w w             O O @         O O O                         ",
"                        w w w         w w w             O O @         O O O                         ",
"                        w w w           w w t         O O O           O O O                         ",
"                        w w w           w w t         O O O           O O O                         ",
"                        w w w w         0 0 i !     2 - O O         O O O O                         ",
"            ' ' '         w w w w         =.U.!.(.N x h d         O O O O         w w w             ",
"            ' ' '           w w w       ].].[.].(.D.N N D.N       O O O           w w w             ",
"            ' ' ' '           w w t   ].].].].].].D.N N N N D.  O O O           w w w w             ",
"              ' ' '           w w w @.].].].].].(.D.v Z v Z v s O O O           w w w               ",
"              ' ' '             w t e.].].].].].(.Q.Z v Z v Z g @ O             w w w               ",
"                ' ' '             p Y.].].].].].(.D.Z Z v Z Z j =             w w w                 ",
"                ' ' ' '           ! !.].].].].].(.Z Z v Z v Z k 2           w w w w                 ",
"                  ' ' ' '           ].].].].].].).S.Z v v Z v v           w w w w                   ",
"                  ' ' ' ' ' '       ].].].].].].).D.v Z Z v Z Z       w w w w w w                   ",
"                      ' ' ' ' ' '   R.].].].].].).S.Z v Z v Z j   w w w w w w                       ",
"                          [ ' ' ' ' -.R.].].].].).S.v Z v D.l a w w w w t                           ",
"                            Y / / W ^ >.!.].[.[.).S.Z v Z k f 4 7 7 4 3                             ",
"                w w w w w w w w t t t P h.+X#X[.).D.Z A.z +.< O O O O O O O O O O O                 ",
"              w w w w w w w w w t w F 3.u.l.L.|.T.M.q.8.X.| Y ; O O X @ O O O O O O O               ",
"          w w w w w w w w 0 w t F H 1.f.f.f.i.f.r.*._ ' ' ] ] a > % $ X O O O O O O O O O           ",
"      w w w w w w           ' ' ' ;.t.f.f.i.f.i.u...' ' ' ' ' ' H q w w           O O O O O O       ",
"    w w w w w         ' ' ' ' ' ' 2.f.f.i.f.i.f.u...' ' ' ' ' ' R t w w w w w         O O O O O     ",
"  w w w w w         ' ' ' ' ' ' ' 4.i.f.f.i.t.f.u...' ' ' ' ' ' / w 0 w w w w w         O O O O O   ",
"w w w w           ' ' ' ' ' ^ F H 4.f.i.f.f.f.f.t...' ' ' ' ' ' W > ; 4 w w w w w           O O O O ",
"  w w           ' ' ' '     w 0 F 4.t.f.f.l.f.f.y...| [ *...' ' W & O O     w w w w           O O   ",
"              ' ' ' '       w w S y.f.L..X@X+X|.x.,.0.k k v.7.[ W ; O O       w w w w               ",
"            ' ' ' '       w w w S t.I./.[.[.[.].(.v N D.N D.n 9.[ $ O O O       w w w w             ",
"            ' ' '         w w w   |.#X].[.#X#X].(.Q.N Z.n N N n w.  O O O         w w w             ",
"          ' ' '         w w w       [.].oXH.L. X(.n v.7.%.m.N N       O O O         w w w           ",
"        ' ' ' '         w w w       [.oXH.p.p.f.x.6.[ ) ) %.m.N       O O O         w w w w         ",
"      ' ' ' '           w w w         H.f.f.f.i.y...' ' [ ' %.        O O O           w w w w       ",
"    ' ' ' '             w w w         i.f.i.i.f.y.#.' ' ' ' '         O O O             w w w w     ",
"  ' ' ' '               w w w           f.t.f.i.u...' ' ' '           O O O               w w w w   ",
"' ' ' '                 w w w             f.i.f.u...'  .'             O O O                 w w w w ",
"' ' '                   w w w               f.f.u... ._               O O O                   w w w ",
"' '                     w w w                   r.;._                 O O O                     w w ",
"                        w w w                                         O O O                         ",
"                        w w w                                         O O O                         ",
"                        w w w                                         O O O                         ",
"                        w w                                             O O                         ",
"                                                                                                    ",
"                                                                                                    "
};
