/* XPM */
static char *result[] = {
/* columns rows colors chars-per-pixel */
"50 50 114 2 ",
"   c #010000",
".  c #0A0705",
"X  c #0D0906",
"o  c #0F0A08",
"O  c #110C07",
"+  c #140C0A",
"@  c #190F0D",
"#  c #17100A",
"$  c #1B120D",
"%  c #1F1410",
"&  c #21170E",
"*  c #23180F",
"=  c #241612",
"-  c #261814",
";  c #2B1B15",
":  c #2F1D18",
">  c #311F19",
",  c #352315",
"<  c #392617",
"1  c #34221A",
"2  c #3B261E",
"3  c #3E2720",
"4  c #3E2820",
"5  c #422C1E",
"6  c #45301F",
"7  c #4D341E",
"8  c #442B23",
"9  c #4A2E25",
"0  c #463120",
"q  c #4D3524",
"w  c #4E3128",
"e  c #573D27",
"r  c #5A3D24",
"t  c #53342A",
"y  c #58372D",
"u  c #5A392E",
"i  c #5E3C31",
"p  c #663C2E",
"a  c #683D2F",
"s  c #633E32",
"d  c #5D412A",
"f  c #624126",
"g  c #67482E",
"h  c #704B2B",
"j  c #664135",
"k  c #6B4337",
"l  c #6E4D32",
"z  c #6E4538",
"x  c #704639",
"c  c #754A3C",
"v  c #794C3E",
"b  c #745031",
"n  c #7A5637",
"m  c #7D4F40",
"M  c #7F5041",
"N  c #885B35",
"B  c #805A3A",
"V  c #895E39",
"C  c #8B613F",
"Z  c #9D693D",
"A  c #A26D3F",
"S  c #855343",
"D  c #8A5646",
"F  c #8E5949",
"G  c #935744",
"H  c #945D4C",
"J  c #985F4E",
"K  c #946842",
"L  c #9B6C46",
"P  c #9A614F",
"I  c #9D6351",
"U  c #A56F40",
"Y  c #A7644F",
"T  c #A57144",
"R  c #A87142",
"E  c #A8764C",
"W  c #B67C4B",
"Q  c #A16553",
"!  c #A76956",
"~  c #AA6B57",
"^  c #AD6C59",
"/  c #B56B54",
"(  c #B06E5A",
")  c #B96F58",
"_  c #B67F51",
"`  c #B4715C",
"'  c #BB725A",
"]  c #BC7660",
"[  c #C27A63",
"{  c #C97E67",
"}  c #CB7F68",
"|  c #BE804A",
" . c #BC8355",
".. c #C1834D",
"X. c #CA884F",
"o. c #C08756",
"O. c #C28857",
"+. c #CB8950",
"@. c #C78C5A",
"#. c #CA8D5B",
"$. c #CF915D",
"%. c #DA955A",
"&. c #CC8069",
"*. c #D69660",
"=. c #E29F66",
"-. c #EBA265",
";. c #EEA76B",
":. c #EFA86C",
">. c #F1A769",
",. c #F4AB6D",
"<. c #F9AE6F",
"1. c #FAAF70",
"2. c #FBB071",
"3. c None",
/* pixels */
"3.3.3.3.3.3.3.3.3.3.3.3.3.3.3.3.3.3.3.3.3.3.3.3.3.3.3.3.3.3.3.3.3.3.3.3.3.3.3.3.3.3.3.3.3.3.3.3.3.3.",
"3.3.3.3.3.3.3.3.3.3.3.3.3.3.3.3.3.3.3.3.3.3.3.3.3.3.3.3.3.3.3.3.3.3.3.3.3.3.3.3.3.3.3.3.3.3.3.3.3.3.",
"3.3.3.3.3.3.3.3.3.3.                                3.3.3.3.3.3.3.3.3.3.3.3.3.3.3.3.3.3.3.3.3.3.3.3.",
"3.3.3.3.3.3.3.3.3.  . 3 8 8 8 8 8 8 8 8 8 8 8 8 >   3.3.3.3.3.3.3.3.3.3.3.3.3.3.3.3.3.3.3.3.3.3.3.3.",
"3.3.3.3.3.3.3.3.3.  @ s z z z z k k k x k x k v x @   3.3.3.3.3.3.3.3.3.3.3.3.3.3.3.3.3.3.3.3.3.3.3.",
"3.3.3.3.3.3.3.3.3.3.  . o X X X X X X X o o . : v :   3.3.3.3.3.3.3.      3.3.3.3.      3.3.3.3.3.3.",
"3.3.3.3.3.3.3.3.3.3.3.3.3.3.3.3.3.3.3.3.3.3.  . k w   3.3.3.3.3.    + @ + 2 m S u $ @ @ .   3.3.3.3.",
"3.3.3.3.3.3.3.3.3.3.3.3.3.3.3.3.3.3.3.3.3.3.3.  t s . 3.3.3.3.3.  > x c c m m m M c c x ;   3.3.3.3.",
"    . . X . . X . X . . . X . X . . X .     3.  2 x +   3.3.3.3.  u k 2 1 1 > > 1 > 1 > +   3.3.3.3.",
"  - k k k k k k k k k k k k k k z z z k 8   3.  = v ;   3.3.3.  + k 8                     3.3.3.3.3.",
"  + 8 8 8 9 8 8 8 8 8 9 8 9 8 8 8 8 8 i c $     . z 8   3.3.3.  ; c -   3.3.3.3.3.3.3.3.3.3.3.3.3.3.",
"3.                                    + k y       y j . 3.3.3.  9 k o   3.3.3.3.3.3.3.3.3.3.3.3.3.3.",
"3.3.3.3.3.3.3.3.3.3.3.3.3.3.3.3.3.3.3.  2 v -     2 x @   3.3.. j t   3.3.3.                    3.3.",
"3.3.3.3.3.3.3.3.3.3.3.3.3.3.3.3.3.3.3.  . s s .   = v ;   3.  % c :   3.  . X O X O X X X + X X     ",
"3.3.3.3.3.3.3.3.3.3.3.3.3.3.3.3.3.3.3.3.  : v 1   X k 8   3.  3 c @     X y x x x x x x k x x k ;   ",
"3.3.3.3.3.3.3.3.3.3.3.3.3.3.        3.3.    u k X   y s .     i i     . t c 9 3 4 4 4 4 3 3 8 2 +   ",
"3.3.3.3.3.3.3.3.3.3.3.    X * , , & .       = v 8   2 c +   @ x 5     9 v 1                       3.",
"3.3.3.3.3.3.3.3.3.3.  # f A | +.X.| Z r O     0 y . $ u =   - s %   2 v 8     3.3.3.3.3.3.3.3.3.3.3.",
"3.3.3.3.3.3.3.3.3.  < R %.-.:.,.,.>.-.%.Z ;     .     .       .   . u 9 .   3.3.3.3.3.3.3.3.3.3.3.3.",
"3.3.3.3.3.3.3.3.  < ..>.2.2.2.2.2.2.2.,.-.W ;   9 p p p p p p p 5 + . .     3.3.3.3.3.3.3.3.3.3.3.3.",
"3.3.3.3.3.3.3.  $ | <.1.2.2.1.2.<.2.2.1.2.<.T X 9 ) ) ' ' ' ' ) / G >     X . .     3.3.3.3.3.3.3.3.",
"3.3.3.3.3.3.3.  b <.2.1.2.2.2.2.2.2.2.2.2.2.,.r O ! &.{ { { { { { [ Y ; O N A A h .   3.3.3.3.3.3.3.",
"3.3.3.3.3.3.  # $.2.2.2.1.2.2.1.2.2.2.2.2.2.2._ . v &.{ { { { { { { { B . C -.-.%.,   3.3.3.3.3.3.3.",
"3.3.3.3.3.3.  , ;.2.2.2.2.2.2.2.2.2.1.2.2.1.2.-.* w { { { { { { { { } ' # d <.<.@.*   3.3.3.3.3.3.3.",
"3.3.3.3.3.3.  q 1.1.2.1.2.2.2.2.1.2.2.2.2.2.2.:.< 5 { { { { { { { { { [ : + 5 2 $   3.3.3.3.3.3.3.3.",
"3.3.3.3.3.3.  q 1.2.2.2.1.2.2.1.2.2.2.2.2.2.2.:.1 2 { { { { { { { { { [ : X , , #   3.3.3.3.3.3.3.3.",
"3.3.3.3.3.3.  < :.2.2.2.2.2.1.2.2.2.2.2.2.2.2.-.* t { { { { { { { { } ` $ 7 +.+.R #   3.3.3.3.3.3.3.",
"3.3.3.3.3.3.  # *.2.2.2.2.2.2.2.1.2.2.2.2.2.2. .. v { { { { { { { } } F . K <.<.-.<   3.3.3.3.3.3.3.",
"3.3.3.3.3.3.3.  n 2.2.2.1.2.2.2.2.2.2.1.2.2.2.g O ~ } } { { { { { &.` 1 # E $.@.C X   3.3.3.3.3.3.3.",
"3.3.3.3.3.3.3.  = $.2.2.2.2.2.2.2.2.2.2.2.2. .# t } } &.{ } } &.{ ! 8     X X X     3.3.3.3.3.3.3.3.",
"3.3.3.3.3.3.3.3.  0 *.2.2.2.2.2.2.2.2.2.2.*.1   y v c c c c c x w @ X .     3.3.3.3.3.3.3.3.3.3.3.3.",
"3.3.3.3.3.3.3.3.3.  q $.2.2.2.2.2.2.2.1.o.<   . .     .     . .   + F v .   3.3.3.3.3.3.3.3.3.3.3.3.",
"3.3.3.3.3.3.3.3.3.3.  $ n @.>.2.2.,.o.l #   . k F O ; J >   2 I :   s [ k     3.3.3.3.3.3.3.3.3.3.3.",
"3.3.3.3.3.3.3.3.3.3.3.    O e :.2.L +       1 ] j   s ] =   - ] s   . x [ y                       3.",
"3.3.3.3.3.3.3.3.3.3.3.3.3.3.3.3.3.3.3.3.  . H ^ @   F I .   . J J     . S ] c s s s s s s s s s $   ",
"3.3.3.3.3.3.3.3.3.3.3.3.3.3.3.3.3.3.3.3.  8 [ t   @ ( x   3.  s ' =     @ D ` ` ` ` ` ` ` ` ` ( 8   ",
"3.3.3.3.3.3.3.3.3.3.3.3.3.3.3.3.3.3.3.  + I I X   1 [ 8   3.  > ] w   3.  . @ @ @ @ @ @ @ @ @ + .   ",
"3.3.3.3.3.3.3.3.3.3.3.3.3.3.3.3.3.3.3.  i [ 3     i ] :   3.3.O ~ S   3.3.3.                    3.3.",
"3.                                    % ^ D .   . S } D 3.3.3.  m ^ @   3.3.3.3.3.3.3.3.3.3.3.3.3.3.",
"  = k x x x k x x x x x x k x x x x k P ] :     + ^ &.3.3.3.3.  8 ] 3   3.3.3.3.3.3.3.3.3.3.3.3.3.3.",
"  4 ^ ^ ^ ^ ^ ^ ^ ^ ^ ^ ^ ^ ^ ^ ^ ^ ^ ^ s   3.  1 ] D 3.3.3.3.  % ` k                     3.3.3.3.3.",
"    X + X + + + O O + + O + o + + O + O .   3.  i ] =   3.3.3.3.  D ` i w t t t w t w w $   3.3.3.3.",
"3.3.3.3.3.3.3.3.3.3.3.3.3.3.3.3.3.3.3.3.3.3.3.  D I . 3.3.3.3.3.  w ' ] ] ] ] ] ] ' ] ] 9   3.3.3.3.",
"3.3.3.3.3.3.3.3.3.3.3.3.3.3.3.3.3.3.3.3.3.3.  + ^ m   3.3.3.3.3.  . = = - = = = = - - - .   3.3.3.3.",
"3.3.3.3.3.3.3.3.3.3.  O @ @ + @ @ + @ @ + @ + 9 ] 9   3.3.3.3.3.3.3.                    3.3.3.3.3.3.",
"3.3.3.3.3.3.3.3.3.  = Q ^ ( ^ ^ ( ^ ^ ^ ^ ( ( ] ] =   3.3.3.3.3.3.3.3.3.3.3.3.3.3.3.3.3.3.3.3.3.3.3.",
"3.3.3.3.3.3.3.3.3.  O i k k k k k k k k k k k k w . 3.3.3.3.3.3.3.3.3.3.3.3.3.3.3.3.3.3.3.3.3.3.3.3.",
"3.3.3.3.3.3.3.3.3.3.                                3.3.3.3.3.3.3.3.3.3.3.3.3.3.3.3.3.3.3.3.3.3.3.3.",
"3.3.3.3.3.3.3.3.3.3.3.3.3.3.3.3.3.3.3.3.3.3.3.3.3.3.3.3.3.3.3.3.3.3.3.3.3.3.3.3.3.3.3.3.3.3.3.3.3.3.",
"3.3.3.3.3.3.3.3.3.3.3.3.3.3.3.3.3.3.3.3.3.3.3.3.3.3.3.3.3.3.3.3.3.3.3.3.3.3.3.3.3.3.3.3.3.3.3.3.3.3."
};
