/* XPM */
static char *result[] = {
/* columns rows colors chars-per-pixel */
"50 50 192 2 ",
"   c #792925",
".  c #7A2924",
"X  c #7A2925",
"o  c #7B2A25",
"O  c #7C2B25",
"+  c #7C2B26",
"@  c #7C2C27",
"#  c #7E2D27",
"$  c #7F2F2A",
"%  c #822F26",
"&  c #802F29",
"*  c #873227",
"=  c #813029",
"-  c #83322B",
";  c #81312C",
":  c #83332C",
">  c #83332E",
",  c #84342D",
"<  c #993E2B",
"1  c #9B3F2B",
"2  c #873833",
"3  c #8A3C37",
"4  c #8B3C37",
"5  c #893C38",
"6  c #8B3D38",
"7  c #8F423D",
"8  c #8F423E",
"9  c #8F433E",
"0  c #90423C",
"q  c #90433E",
"w  c #91433E",
"e  c #91443E",
"r  c #90443F",
"t  c #92443F",
"y  c #93463F",
"u  c #96473F",
"i  c #994A3F",
"p  c #9E4B3E",
"a  c #A5462D",
"s  c #B24E2F",
"d  c #A84D37",
"f  c #CD6034",
"g  c #DE6A37",
"h  c #E77039",
"j  c #EF753B",
"k  c #E8733E",
"l  c #E9743E",
"z  c #F4783B",
"x  c #F77C3E",
"c  c #FB7D3D",
"v  c #F87C3E",
"b  c #F97C3E",
"n  c #FA7D3E",
"m  c #FC7E3D",
"M  c #FD7E3D",
"N  c #FD7F3D",
"B  c #FE7E3D",
"V  c #FE7F3D",
"C  c #FF7F3D",
"Z  c #FE7F3E",
"A  c #944840",
"S  c #964841",
"D  c #964941",
"F  c #984942",
"G  c #994B42",
"H  c #984C42",
"J  c #994C42",
"K  c #994C43",
"L  c #994D43",
"P  c #9D4C40",
"I  c #9F5045",
"U  c #A25144",
"Y  c #A25247",
"T  c #A35347",
"R  c #A55446",
"E  c #A45447",
"W  c #A65547",
"Q  c #A95642",
"!  c #AA5742",
"~  c #A35348",
"^  c #A45448",
"/  c #A65648",
"(  c #AA594B",
")  c #AA5A4A",
"_  c #AA5A4B",
"`  c #AB5A4B",
"'  c #AB5B4B",
"]  c #AC5A4B",
"[  c #AC5B4B",
"{  c #AD5B4B",
"}  c #AB5A4C",
"|  c #AC5B4C",
" . c #AD5E4D",
".. c #AE5E4C",
"X. c #AE5E4D",
"o. c #AF5F4D",
"O. c #B65B41",
"+. c #B25E43",
"@. c #B05C4A",
"#. c #B15D4A",
"$. c #B65F49",
"%. c #B45E4A",
"&. c #B05F4C",
"*. c #BD6645",
"=. c #B5624C",
"-. c #B3644F",
";. c #BB6148",
":. c #B96448",
">. c #BE654A",
",. c #BF664A",
"<. c #B46A4F",
"1. c #BB6F53",
"2. c #BA7052",
"3. c #BE7554",
"4. c #BF7554",
"5. c #C36547",
"6. c #C46547",
"7. c #C76747",
"8. c #CE6A45",
"9. c #D76E44",
"0. c #DC7043",
"q. c #DB7044",
"w. c #D57849",
"e. c #C27855",
"r. c #C37855",
"t. c #C17856",
"y. c #C27856",
"u. c #C47B57",
"i. c #C47C57",
"p. c #C57C57",
"a. c #C57D57",
"s. c #C67C57",
"d. c #C67D57",
"f. c #C77D57",
"g. c #C87850",
"h. c #C87D57",
"j. c #C97E56",
"k. c #C97E57",
"l. c #CB7F56",
"z. c #CD7D54",
"x. c #CF7E54",
"c. c #E27242",
"v. c #E37342",
"b. c #E47342",
"n. c #E67441",
"m. c #E67743",
"M. c #E97641",
"N. c #EC7740",
"B. c #EF7840",
"V. c #F77E40",
"C. c #F87F40",
"Z. c #FB803F",
"A. c #FD813F",
"S. c #FF803E",
"D. c #FE823F",
"F. c #FF823F",
"G. c #CD8056",
"H. c #D08255",
"J. c #D58455",
"K. c #D68455",
"L. c #D88554",
"P. c #DC8854",
"I. c #E3834B",
"U. c #EB894C",
"Y. c #ED8D4F",
"T. c #EE8C4E",
"R. c #EF8D4E",
"E. c #F28F4D",
"W. c #F38F4D",
"Q. c #F6934E",
"!. c #F9934E",
"~. c #FB944D",
"^. c #FB974F",
"/. c #FC944D",
"(. c #FF964D",
"). c #FD974F",
"_. c #FD984F",
"`. c #FE984F",
"'. c #FF994F",
"]. c #FF9A4F",
"[. c #E48C53",
"{. c #E58D53",
"}. c #E78D52",
"|. c #EB8F52",
" X c #EC8F52",
".X c #EE9151",
"XX c #ED9052",
"oX c #F09251",
"OX c #F29251",
"+X c #F49450",
"@X c #FB9750",
"#X c None",
/* pixels */
"#X#X#X#X#X#X#X#X#X#X#X#X#X#X#X#X#X#X#X#X#X#X#X#X#X#X#X#X#X#X#X#X#X#X#X#X#X#X#X#X#X#X#X#X#X#X#X#X#X#X",
"#X#X#X#X#X#X#X#X#X#X#X#X#X#X#X#X#X#X#X#X#X#X#X#X#X#X#X#X#X#X#X#X#X#X#X#X#X#X#X#X#X#X#X#X#X#X#X#X#X#X",
"#X#X#X#X#X#X#X#X#X#X#X#Xo o #X#X#X#X#X#X#X#X#X#X#X#X#X#X#X#X#X#X#X#X#X#Xq q #X#X#X#X#X#X#X#X#X#X#X#X",
"#X#X#X#X#X#X#X#X#X#X#X#Xo o o #X#X#X#X#X#X#X#X#X#X#X#X#X#X#X#X#X#X#X#Xq q q #X#X#X#X#X#X#X#X#X#X#X#X",
"#X#X#X#X#X#X#X#X#X#X#X#Xo o o #X#X#X#X#X#X#X#X#X#X#X#X#X#X#X#X#X#X#X#Xq q q #X#X#X#X#X#X#X#X#X#X#X#X",
"#X#X#X#X#X#X#X#X#X#X#X#Xo o o #X#X#X#X#X#X#X#X#X#X#X#X#X#X#X#X#X#X#X#Xq q q #X#X#X#X#X#X#X#X#X#X#X#X",
"q q #X#X#X#X#X#X#X#X#X#Xo o o #X#X#X#X#X#X#X#X' o.e.#X#X#X#X#X#X#X#X#Xq q q #X#X#X#X#X#X#X#X#X#X` ` ",
"q q q #X#X#X#X#X#X#X#X#Xo o o #X#X#X#X#X#X#X' ` ..y.p.p.#X#X#X#X#X#X#Xq q q #X#X#X#X#X#X#X#X#X` ` ` ",
"q q q q #X#X#X#X#X#X#X#Xo o o #X#X#X#X#X#X` ` ` X.y.p.p.p.#X#X#X#X#X#Xq q q #X#X#X#X#X#X#X#X` ` ` ` ",
"#Xq q q q #X#X#X#X#X#X#Xo o o #X#X#X#X#X' ` ` ` X.y.p.p.p.p.#X#X#X#X#Xq q q #X#X#X#X#X#X#X` ` ` ` #X",
"#X#Xq q q q #X#X#X#X#X#Xo o o #X#X#X#X` ` ` ` ` X.y.p.p.p.p.i.#X#X#X#Xq q q #X#X#X#X#X#X` ` ` ` #X#X",
"#X#X#Xq q q q #X#X#X#X#Xo o o #X#X#X#X$._ ` ` `  .t.p.p.p.i.G.#X#X#X#Xq q q #X#X#X#X#X` ` ` ` #X#X#X",
"#X#X#X#Xq q q q #X#X#X#Xo o o #X#X#XN n.%.( ( { ,.x.f.i.i.l..X'.#X#X#Xq q q #X#X#X#X` ` ` ` #X#X#X#X",
"#X#X#X#X#Xq q q #X#X#X#Xo o o #X#X#XM B b.;.5.c.C.~.|.J.H.XX'.'.#X#X#Xq q q #X#X#X#X` ` ` #X#X#X#X#X",
"#X#X#X#X#X#Xq q q #X#X#X#Xo o o #Xq.v B M x n B D.(.]._.@X'.'.@X{.#Xq q q #X#X#X#X` ` ` #X#X#X#X#X#X",
"#X#X#X#X#X#Xq q q q #X#X#Xo o o # { 8.b V V V B V.!.].'.'.].^.P.s.y q q q #X#X#X` ` ` ` #X#X#X#X#X#X",
"#X#X#X#X#X#X#Xq q q q #X#X#Xo o & W [ 6.v.B.N.9.>.z.[.OX+X XK.d.4.A q q #X#X#X` ` ` ` #X#X#X#X#X#X#X",
"#Xo o #X#X#X#X#Xq q q q #X#Xo . = R ` _ { #.@.`  .t.p.h.j.s.i.p.3.D 8 q #X#X` ` ` ` #X#X#X#X#Xq q #X",
"o o o o #X#X#X#X#Xq q q q q 3 ; : W ` ` ` ` ` ` ..y.p.p.p.p.p.p.4.J F T ` ` ` ` ` #X#X#X#X#Xq q q q ",
"#Xo o o o o #X#X#X#Xq q q q q 7 0 / ` ` ` ` ` ` X.y.p.p.p.p.p.p.4.) ( ` ` ` ` ` #X#X#X#Xq q q q q #X",
"#X#Xo o o o o #X#X#X#Xq q q q q e Y ` ` ` ` ` ` X.y.p.p.p.p.p.a.1.` ` ` ` ` ` #X#X#X#Xq q q q q #X#X",
"#X#X#Xo o o o o o #X#X#X#X#X7 q 7 G _ ` ` ` ` ` X.y.p.p.p.p.p.u.-.( _ ( #X#X#X#X#Xq q q q q q #X#X#X",
"#X#X#X#X#Xo o o o o o o o o o @ $ > P | ` ` ( ` &.r.p.i.p.p.d.<.K S t q 9 q q q q q q q q #X#X#X#X#X",
"#X#X#X#X#X#X#Xo o o o o o o o o o . - U } #.7.0.m.Y.}.L.k.p.2.H 8 q q q q q q q q q q #X#X#X#X#X#X#X",
"#X#X#X#X#X#X#X#Xo o o o o o o o + + o , O.M.m B F.(.].`.oXg.L q e e w q q q q q q q #X#X#X#X#X#X#X#X",
"#X#X#X#X#X#X#X#X#X#X#X#X#X#X2 3 6 4 5 d j C M M A.(.'.'.].E.:.~ ^ ^ E I #X#X#X#X#X#X#X#X#X#X#X#X#X#X",
"#X#X#X#X#X#X#X#X#X#X#X#X#Xr q q q q p l C M M M A.(.'.'.'.].R.=.` ` ` ` ] #X#X#X#X#X#X#X#X#X#X#X#X#X",
"#X#X#X#X#X#X#X#X#X#X#Xq q q q q q #Xk B M M M M A.(.'.'.'.'.'.T.#X` ` ` ` ` ` #X#X#X#X#X#X#X#X#X#X#X",
"#X#X#X#X#X#X#X#X#Xq q q q q q #X#X#XV M M M M M A.(.'.'.'.'.'.].#X#X#X` ` ` ` ` ` #X#X#X#X#X#X#X#X#X",
"#X#X#X#X#X#X#X#X#Xq q q q #X#X#X#X#Xc M M M M M A.(.'.'.'.'.'.).#X#X#X#X#X` ` ` ` #X#X#X#X#X#X#X#X#X",
"#X#X#X#X#X#X#X#Xq q q q #X#X#X#X#X1 j V M M M M A.(.'.'.'.'.].W.! #X#X#X#X#X` ` ` ` #X#X#X#X#X#X#X#X",
"#X#X#X#X#X#X#X#Xq q q #X#X#X#X#X#X* h V M M M M A.(.'.'.'.'.].U.i #X#X#X#X#X#X` ` ` #X#X#X#X#X#X#X#X",
"#X#X#X#X#X#X#Xq q q #X#X#X#X#X#Xo O f C M M M M A.(.'.'.'.'.].w.e q #X#X#X#X#X#X` ` ` #X#X#X#X#X#X#X",
"#X#X#X#X#X#X#Xq q q #X#X#X#X#Xo o   a M M M M M A.(.'.'.'.'.'.+.8 q q #X#X#X#X#X` ` ` #X#X#X#X#X#X#X",
"#X#X#X#X#X#Xq q q q #X#X#X#X#Xo o o #XS.M M M M A.(.'.'.'.'.].#Xq q q #X#X#X#X#X` ` ` ` #X#X#X#X#X#X",
"#X#X#X#X#X#Xq q q #X#X#X#X#Xo o o #X#X#XZ V C B A.(.].].'.'.#X#X#Xq q q #X#X#X#X#X` ` ` #X#X#X#X#X#X",
"#X#X#X#X#X#Xq q q #X#X#X#Xo o o o #X#X#X#Xs g z Z./.Q.I.*.#X#X#X#Xq q q q #X#X#X#X` ` ` #X#X#X#X#X#X",
"#X#X#X#X#X#X#X#X#X#X#X#Xo o o o #X#X#X#Xo X % < #X#XQ u 8 9 #X#X#X#Xq q q q #X#X#X#X#X#X#X#X#X#X#X#X",
"#X#X#X#X#X#X#X#X#X#X#X#Xo o o #X#X#X#X#Xo o o #X#X#X#Xq q q #X#X#X#X#Xq q q #X#X#X#X#X#X#X#X#X#X#X#X",
"#X#X#X#X#X#X#X#X#X#X#X#Xo o o #X#X#X#X#Xo o o #X#X#X#Xq q q #X#X#X#X#Xq q q #X#X#X#X#X#X#X#X#X#X#X#X",
"#X#X#X#X#X#X#X#X#X#X#X#Xo o o #X#X#X#X+ o o #X#X#X#X#X#Xq q q #X#X#X#Xq q q #X#X#X#X#X#X#X#X#X#X#X#X",
"#X#X#X#X#X#X#X#X#X#X#X#Xo o o #X#X#X#X+ o o #X#X#X#X#X#Xq q q #X#X#X#Xq q q #X#X#X#X#X#X#X#X#X#X#X#X",
"#X#X#X#X#X#X#X#X#X#X#X#Xo o o #X#X#X#X#Xo o #X#X#X#X#X#Xq q #X#X#X#X#Xq q q #X#X#X#X#X#X#X#X#X#X#X#X",
"#X#X#X#X#X#X#X#X#X#X#X#Xo o o #X#X#X#X#X#X#X#X#X#X#X#X#X#X#X#X#X#X#X#Xq q q #X#X#X#X#X#X#X#X#X#X#X#X",
"#X#X#X#X#X#X#X#X#X#X#X#Xo o o #X#X#X#X#X#X#X#X#X#X#X#X#X#X#X#X#X#X#X#Xq q q #X#X#X#X#X#X#X#X#X#X#X#X",
"#X#X#X#X#X#X#X#X#X#X#X#X#Xo o o #X#X#X#X#X#X#X#X#X#X#X#X#X#X#X#X#X#Xq q q #X#X#X#X#X#X#X#X#X#X#X#X#X",
"#X#X#X#X#X#X#X#X#X#X#X#X#Xo o o #X#X#X#X#X#X#X#X#X#X#X#X#X#X#X#X#X#Xq q q #X#X#X#X#X#X#X#X#X#X#X#X#X",
"#X#X#X#X#X#X#X#X#X#X#X#X#Xo o #X#X#X#X#X#X#X#X#X#X#X#X#X#X#X#X#X#X#X#Xq q #X#X#X#X#X#X#X#X#X#X#X#X#X",
"#X#X#X#X#X#X#X#X#X#X#X#X#X#X#X#X#X#X#X#X#X#X#X#X#X#X#X#X#X#X#X#X#X#X#X#X#X#X#X#X#X#X#X#X#X#X#X#X#X#X",
"#X#X#X#X#X#X#X#X#X#X#X#X#X#X#X#X#X#X#X#X#X#X#X#X#X#X#X#X#X#X#X#X#X#X#X#X#X#X#X#X#X#X#X#X#X#X#X#X#X#X"
};
