/* XPM */
static char *result[] = {
/* columns rows colors chars-per-pixel */
"50 50 114 2 ",
"   c #010000",
".  c #0A0705",
"X  c #0D0906",
"o  c #0F0A08",
"O  c #110C07",
"+  c #140C0A",
"@  c #190F0D",
"#  c #17100A",
"$  c #1B120D",
"%  c #1F1410",
"&  c #21170E",
"*  c #23180F",
"=  c #241612",
"-  c #261814",
";  c #2B1B15",
":  c #2F1D18",
">  c #311F19",
",  c #352315",
"<  c #392617",
"1  c #34221A",
"2  c #3B261E",
"3  c #3E2720",
"4  c #3E2820",
"5  c #422C1E",
"6  c #45301F",
"7  c #4D341E",
"8  c #442B23",
"9  c #4A2E25",
"0  c #463120",
"q  c #4D3524",
"w  c #4E3128",
"e  c #573D27",
"r  c #5A3D24",
"t  c #53342A",
"y  c #58372D",
"u  c #5A392E",
"i  c #5E3C31",
"p  c #663C2E",
"a  c #683D2F",
"s  c #633E32",
"d  c #5D412A",
"f  c #624126",
"g  c #67482E",
"h  c #704B2B",
"j  c #664135",
"k  c #6B4337",
"l  c #6E4D32",
"z  c #6E4538",
"x  c #704639",
"c  c #754A3C",
"v  c #794C3E",
"b  c #745031",
"n  c #7A5637",
"m  c #7D4F40",
"M  c #7F5041",
"N  c #885B35",
"B  c #805A3A",
"V  c #895E39",
"C  c #8B613F",
"Z  c #9D693D",
"A  c #A26D3F",
"S  c #855343",
"D  c #8A5646",
"F  c #8E5949",
"G  c #935744",
"H  c #945D4C",
"J  c #985F4E",
"K  c #946842",
"L  c #9B6C46",
"P  c #9A614F",
"I  c #9D6351",
"U  c #A56F40",
"Y  c #A7644F",
"T  c #A57144",
"R  c #A87142",
"E  c #A8764C",
"W  c #B67C4B",
"Q  c #A16553",
"!  c #A76956",
"~  c #AA6B57",
"^  c #AD6C59",
"/  c #B56B54",
"(  c #B06E5A",
")  c #B96F58",
"_  c #B67F51",
"`  c #B4715C",
"'  c #BB725A",
"]  c #BC7660",
"[  c #C27A63",
"{  c #C97E67",
"}  c #CB7F68",
"|  c #BE804A",
" . c #BC8355",
".. c #C1834D",
"X. c #CA884F",
"o. c #C08756",
"O. c #C28857",
"+. c #CB8950",
"@. c #C78C5A",
"#. c #CA8D5B",
"$. c #CF915D",
"%. c #DA955A",
"&. c #CC8069",
"*. c #D69660",
"=. c #E29F66",
"-. c #EBA265",
";. c #EEA76B",
":. c #EFA86C",
">. c #F1A769",
",. c #F4AB6D",
"<. c #F9AE6F",
"1. c #FAAF70",
"2. c #FBB071",
"3. c None",
/* pixels */
"3.3.3.3.3.3.3.3.3.3.3.3.3.      3.3.3.3.3.3.3.3.3.3.3.3.3.3.3.3.3.3.      3.3.3.3.3.3.3.3.3.3.3.3.3.",
"3.3.3.3.3.3.3.3.3.3.3.3.3.  - +   3.3.3.3.3.3.3.3.3.3.3.3.3.3.3.3.  % 8   3.3.3.3.3.3.3.3.3.3.3.3.3.",
"3.3.3.3.3.3.3.3.3.3.3.3.  X z 3   3.3.3.3.3.3.3.3.3.3.3.3.3.3.3.3.  s ( @   3.3.3.3.3.3.3.3.3.3.3.3.",
"3.3.3.3.3.3.3.3.3.3.3.3.  o x 4   3.3.3.3.3.3.3.3.3.3.3.3.3.3.3.3.  s ` $   3.3.3.3.3.3.3.3.3.3.3.3.",
"3.3.3.3.3.3.      3.3.3.  o x 4   3.3.3.3.3.3.3.3.3.3.3.3.3.3.3.3.  s ` @   3.3.3.      3.3.3.3.3.3.",
"3.3.3.3.3.3.. : o   3.3.  o x 4   3.3.3.3.3.3.3.3.3.3.3.3.3.3.3.3.  s ` @   3.3.  $ 9 . 3.3.3.3.3.3.",
"3.3.3.3.3.  + x :   3.3.  o x 4   3.3.3.3.3.3.3.3.3.3.3.3.3.3.3.3.  s ` @   3.3.  w ' =   3.3.3.3.3.",
"3.3.3.3.3.  @ c 1   3.3.  o z 3   3.3.3.3.      3.3.      3.3.3.3.  s ` @   3.3.  t ] -   3.3.3.3.3.",
"3.3.3.3.3.  $ c 1   3.3.  o x 4   3.3.3.  . , %     # < o   3.3.3.  s ` @   3.3.  t ] =   3.3.3.3.3.",
"3.3.3.3.3.3.y m >   3.3.  o x 4   3.3.3.  h %.@.$ # A -.C . 3.3.3.  s ` @   3.3.  t ] =   3.3.3.3.3.",
"3.3.3.3.3.3.M M >   3.3.  o z 3   3.3.3.. A -.<.5 , X.<.@.X 3.3.3.  s ` @   3.3.  t ] -   3.3.3.3.3.",
"3.3.3.3.3.3.m M >   3.3.  o x 9     3.3.X A -.,.6 , X.<.@.X 3.3.    c ` @   3.3.  w ] =   3.3.3.3.3.",
"3.3.3.3.3.3.2 v 1   3.3.3.. y c 1       X N V p O X q K E +       y ] D . 3.3.3.  t ' -   3.3.3.3.3.",
"3.3.3.3.3.  @ c >   3.3.3.  . t v 8 .     O . @ > > $ . #     . k [ S @   3.3.3.  w ] -   3.3.3.3.3.",
"3.3.3.3.3.  @ c 2       3.3.  . 0 v w     ; S ` [ [ ' F >   . v [ c X   3.3.      y ] -   3.3.3.3.3.",
"3.3.3.3.3.  + x z 8 = X           2 y . 1 Y { { { { &.&.` 8 X F s           + 3 z ` ] =   3.3.3.3.3.",
"3.3.3.3.3.3.  > y z c z t > @       . + G [ { { { { { { { Y # +     . % w M ~ [ ( D w . 3.3.3.3.3.3.",
"3.3.3.3.3.3.      O ; 9 j v x i 4 %   8 / { { { { { { { { { t   ; s H ] ] ! m 8 %       3.3.3.3.3.3.",
"3.3.3.3.3.3.3.3.3.      . % 3 i c s . p ) } { { { { { { } } z X I ] J s 1 O       3.3.3.3.3.3.3.3.3.",
"3.3.3.3.3.3.3.3.3.3.3.3.3.      + =   p ' { { { { { { { } } c   2 = .     3.3.3.3.3.3.3.3.3.3.3.3.3.",
"3.3.3.3.3.3.3.3.3.3.3.3.3.3.3.        a ' { { { { { { { } } c         3.3.3.3.3.3.3.3.3.3.3.3.3.3.3.",
"3.3.3.3.3.3.3.3.3.3.3.3.      . + %   p ' { { { { { { { { } c . > % .       3.3.3.3.3.3.3.3.3.3.3.3.",
"3.3.3.3.3.3.3.3.      . @ ; 8 s c i . p ' { { { { { { { { } c . J ] I c 8 : D 3.3.  3.3.3.3.3.3.3.3.",
"3.3.3.3.      . @ ; 9 i c c z y 2 $   p ' } } } { { } &.} } c   ; s F ( [ ] &.&.D = .       3.3.3.3.",
"3.3.    @ : 9 j c c z y 2 = X     .   a ` ! m q 2 8 t c ! &.c   O     @ 1 i D ^ ] ] Q c 9 = .   3.3.",
"3.3.  > c c k y 2 % X         X 8 y . 9 9 o . % 1 , % . + t y . F j @         @ 1 i D ^ ] ] w   3.3.",
"3.3.  8 c : .             . 1 k c 8 .   X d  .=.:.:.-. .g +   . c [ ~ y o             + 9 ] k   3.3.",
"3.3.  8 z .   3.3.3.    - s c y =     * R >.2.2.2.2.2.2.2. .<     1 F [ I 3     3.3.3.  @ ( k   3.3.",
"3.3.  8 z X 3.3.    = y v s ; .     ; W 1.2.1.2.2.2.2.2.2.2.*.<     . 8 Q [ D :     3.3.+ ^ k   3.3.",
"3.3.  8 z X 3.3.  4 c z 2 .       O Z -.2.2.2.2.2.2.2.2.2.1.2. .#       O i ^ ] k   3.3.@ ( k   3.3.",
"3.3.  8 z X 3.3.. z i O     3.3.  r %.<.2.2.2.2.2.2.2.2.2.2.2.2.l   3.3.    % J ^ O 3.3.+ ^ k   3.3.",
"3.3.  8 z o 3.3.. z 8   3.3.3.3.. Z -.2.2.2.2.2.2.2.2.2.2.2.2.2.O.o 3.3.3.3.  z ^ + 3.3.@ ( k   3.3.",
"3.3.  8 z X 3.3.. z 8   3.3.3.  & | >.2.2.2.2.2.<.2.2.2.2.2.2.2.,.L 3.3.3.3.  z ^ + 3.3.@ ^ k   3.3.",
"3.3.  8 z X 3.3.. k 8   3.3.3.  < X.>.2.2.2.2.2.2.2.2.2.2.2.1.2.2.2.3.3.3.3.  x ^ O 3.3.@ ^ k   3.3.",
"3.3.  8 z X 3.3.. z 8   3.3.3.  < X.<.2.2.2.2.2.2.2.2.1.2.2.2.2.2.:.3.3.3.3.  x ^ O 3.3.@ ( k   3.3.",
"3.3.  8 z o 3.3.. z 8   3.3.3.  * | >.2.2.2.2.2.1.2.2.2.2.2.2.2.:.d 3.3.3.3.  x ^ O 3.3.@ ^ k   3.3.",
"3.3.  8 z X 3.3.. z 8   3.3.3.3.X A -.2.2.2.2.2.2.2.2.2.<.2.2.2.@.X 3.3.3.3.  z ^ + 3.3.O ^ k   3.3.",
"3.3.  8 z X 3.3.. k 9   3.3.3.3.  f %.<.2.2.2.2.2.2.2.2.2.2.2.2.n   3.3.3.3.  x ^ + 3.3.@ ^ z   3.3.",
"3.3.  2 s . 3.3.. z 8   3.3.3.3.  # R >.2.2.2.2.2.2.2.2.2.2.2.$.$   3.3.3.3.  x ^ O 3.3.o Q i   3.3.",
"3.3.  . +   3.3.. k 8   3.3.3.3.3.  < ..<.2.2.2.1.2.2.1.2.2.-.4   3.3.3.3.3.  x ^ + 3.3.  = O   3.3.",
"3.3.3.    3.3.3.. z 8   3.3.3.3.3.3.  < | <.2.2.2.2.2.2.2.$.0   3.3.3.3.3.3.  x ^ + 3.3.3.    3.3.3.",
"3.3.3.3.3.3.3.3.. k 8   3.3.3.3.3.3.3.  # b @.:.<.<.,.$.B &   3.3.3.3.3.3.3.  x ^ o 3.3.3.3.3.3.3.3.",
"3.3.3.3.3.3.3.3.. k 8   3.3.3.3.3.3.3.3.    + < q q 1 #     3.3.3.3.3.3.3.3.  x ^ + 3.3.3.3.3.3.3.3.",
"3.3.3.3.3.3.3.3.. z 8   3.3.3.3.3.3.3.3.3.3.            3.3.3.3.3.3.3.3.3.3.  x ^ o 3.3.3.3.3.3.3.3.",
"3.3.3.3.3.3.3.3.. k 8   3.3.3.3.3.3.3.3.3.3.3.3.3.3.3.3.3.3.3.3.3.3.3.3.3.3.  z ^ O 3.3.3.3.3.3.3.3.",
"3.3.3.3.3.3.3.3.. z 9   3.3.3.3.3.3.3.3.3.3.3.3.3.3.3.3.3.3.3.3.3.3.3.3.3.3.  x ^ + 3.3.3.3.3.3.3.3.",
"3.3.3.3.3.3.3.3.. z 8   3.3.3.3.3.3.3.3.3.3.3.3.3.3.3.3.3.3.3.3.3.3.3.3.3.3.  z ^ + 3.3.3.3.3.3.3.3.",
"3.3.3.3.3.3.3.3.. k 8   3.3.3.3.3.3.3.3.3.3.3.3.3.3.3.3.3.3.3.3.3.3.3.3.3.3.  z ~ o 3.3.3.3.3.3.3.3.",
"3.3.3.3.3.3.3.3.  - @   3.3.3.3.3.3.3.3.3.3.3.3.3.3.3.3.3.3.3.3.3.3.3.3.3.3.  = 3   3.3.3.3.3.3.3.3.",
"3.3.3.3.3.3.3.3.      3.3.3.3.3.3.3.3.3.3.3.3.3.3.3.3.3.3.3.3.3.3.3.3.3.3.3.3.      3.3.3.3.3.3.3.3."
};
