/* XPM */
static char *c8ed1eb2f9204d60ce25174ca7074c41ws8RUqvwGgUO3LOP[] = {
/* columns rows colors chars-per-pixel */
"50 50 2 1 ",
"  c None",
". c black",
/* pixels */
"                        ..                        ",
"                        ..                        ",
"                        ..                        ",
"            ..          ..          ..            ",
"            ..         ....         ..            ",
"             ..     ..........     ..             ",
"             .......... .. ..........             ",
"             ......     ..     ......             ",
"             ...        ..        ...             ",
"            .. ..       ..       .. ..            ",
"           ..   ..    ......    ..   ..           ",
"          ...   ..................   ...          ",
"   ..    ...    .....   ..   .....    ...    ..   ",
"   .......     ....     ..     ....     .......   ",
"     ....     ... ..    ..    .. ...     ....     ",
"      ....   ...   ..  ....  ..   ...   ....      ",
"      .. ......    ............    ...... ..      ",
"      ..  ....     ...  ..  ...     ....  ..      ",
"      ..   ....   ....  ..  ....   ....   ..      ",
"      .    .. .....  .. .. ..  ..... ..    .      ",
"     ..    ..  ....  .. .. ..  ....  ..    ..     ",
"     ..    .    ..... ...... .....    .    ..     ",
"     ..   ..    .  ............  .    ..   ..     ",
"    ..    ..   ..    ........    ..   ..    ..    ",
"..................................................",
"..................................................",
"    ..    ..   ..    ........    ..   ..    ..    ",
"     ..   ..    .  ............  .    ..   ..     ",
"     ..    .    ..... ...... .....    .    ..     ",
"     ..    ..  ....  .. .. ..  ....  ..    ..     ",
"      .    .. .....  .. .. ..  ..... ..    .      ",
"      ..   ....   ....  ..  ....   ....   ..      ",
"      ..  ....     ...  ..  ...     ....  ..      ",
"      .. ......    ............    ...... ..      ",
"      ....   ...   ..  ....  ..   ...   ....      ",
"     ....      .. ..    ..    .. ...     ....     ",
"   .......     ....     ..     ....     .......   ",
"   ..    ...    .....   ..   .....    ...    ..   ",
"          ...   ..................   ...          ",
"           ..   ..    ......    ..   ..           ",
"            .. ..       ..       .. ..            ",
"             ...        ..        ...             ",
"             ......     ..     ......             ",
"             .......... .. ..........             ",
"             ..     ..........     ..             ",
"            ..         ....         ..            ",
"            ..          ..          ..            ",
"                        ..                        ",
"                        ..                        ",
"                        ..                        "
};
