/* XPM */
static char *_11ba7c39183422abdd878e369ce1953QS6iCMu8P5XvKeVW[] = {
/* columns rows colors chars-per-pixel */
"50 50 106 2 ",
"   c black",
".  c gray1",
"X  c #040404",
"o  c #070708",
"O  c #070808",
"+  c #0A0B0B",
"@  c #0B0B0B",
"#  c #0C0C0C",
"$  c #0C0D0D",
"%  c #111212",
"&  c #1F1F20",
"*  c #1F2020",
"=  c #222323",
"-  c #232323",
";  c #232324",
":  c #232424",
">  c #242525",
",  c #272728",
"<  c #29292A",
"1  c #2B2B2C",
"2  c #323233",
"3  c #353536",
"4  c #38393A",
"5  c #3A3B3B",
"6  c #3B3B3C",
"7  c #3D3E3E",
"8  c #3F3F40",
"9  c #3F4040",
"0  c #454546",
"q  c #494A4B",
"w  c #4A4A4B",
"e  c #4F4F50",
"r  c #4F5050",
"t  c #4F5051",
"y  c #545556",
"u  c #555656",
"i  c #575859",
"p  c #58595A",
"a  c #606162",
"s  c #626364",
"d  c #636465",
"f  c #656667",
"g  c #666768",
"h  c #6C6D6F",
"j  c #757677",
"k  c #757778",
"l  c #777879",
"z  c #797A7B",
"x  c #7A7B7C",
"c  c #7B7C7D",
"v  c #7B7C7E",
"b  c #808182",
"n  c #808283",
"m  c #838485",
"M  c #848586",
"N  c #868788",
"B  c #87888A",
"V  c #88898B",
"C  c #898B8C",
"Z  c #8A8B8C",
"A  c #8A8C8D",
"S  c #8C8D8E",
"D  c #8E8F90",
"F  c #8E9091",
"G  c #929394",
"H  c #929395",
"J  c #939496",
"K  c #949597",
"L  c #959698",
"P  c #969798",
"I  c #9FA1A2",
"U  c #A1A2A4",
"Y  c #A4A5A7",
"T  c #A4A6A7",
"R  c #A6A7A9",
"E  c #A7A8AA",
"W  c #A7A9AB",
"Q  c #A9ABAD",
"!  c #ABADAE",
"~  c #ACADAF",
"^  c #ACAEB0",
"/  c #ADAEB0",
"(  c #AFB1B2",
")  c #B0B2B4",
"_  c #B1B2B4",
"`  c #B2B4B6",
"'  c #B4B5B7",
"]  c #B6B7B9",
"[  c #B6B8BA",
"{  c #B9BBBD",
"}  c #BBBDBF",
"|  c #BCBDBF",
" . c #BCBEC0",
".. c #BEC0C2",
"X. c #C3C5C7",
"o. c #C5C7C9",
"O. c #C7C9CB",
"+. c #C8C9CB",
"@. c #C8CACC",
"#. c #CBCDCF",
"$. c #CDCFD1",
"%. c #CFD1D3",
"&. c #D0D2D4",
"*. c #D6D8DA",
"=. c #D9DBDD",
"-. c #DADCDE",
/* pixels */
"                                                                                                    ",
"    0                                                                                         0     ",
"  0 -.A                                                                                     Z -.0   ",
"    A -.Z                                                                                 Z -.Z     ",
"      Z -.Z                                     |  .                                    Z -.Z       ",
"        Z -.Z                               X ] &.&.[ X                               Z -.Z         ",
"          Z -.Z                           - @.&.$.$.&.@.-                           Z -.Z           ",
"            Z -.Z                     + K &.$.- ....- #.%.H +                     Z -.Z             ",
"              Z -.Z               3 Q &.&.V     ....    V &.&.R 2               Z -.Z               ",
"                Z -.R v x A Q O.&.&.&.M @       ....      + M &.&.&.O.E B x v E -.Z                 ",
"                  U -.*.&.%.#.` k >             ....            > j _ #.%.&.*.-.U                   ",
"                  h *.-.A                     < &.&.,                     A -.*.h                   ",
"                  h &.A -.Z                 > &.&.&.&.>                 Z -.S &.h                   ",
"                  B %.  Z -.Z           + N &.@.X.X.+.&.M +           Z -.Z   %.V                   ",
"                  ( @.    Z -.#.! U ~ +.&.&.J   ....  K &.&.+./ U ~ #.-.Z     @.(                   ",
"                  $.T       { -.*.$.@._ f +     ....    + f _ +.#.*.-.{       T $.                  ",
"                % &.r       d *.=.A             ....            V -.*.s       r &.%                 ",
"                l &.O       9 &.K -.Z           ....          Z -.J &.9       + &.l                 ",
"                %.(         r %.o Z -.Z         o.o.        Z -.S + &.w         ( $.                ",
"              a %.;         J %.    Z -.D 1 u o.&.&.O.u 1 D -.Z     &.K         > &.a               ",
"            + %./           &.T       D -.*.&.+.@.@.O.&.*.-.J       W &.          / &.+             ",
"            ] %.#         z &.-       4 *.-.K   ....  H -.*.h       * &.v         $ &.'             ",
"          A &.q         6 &.L         H &.A -.Z ....Z -.Z O. .        P %.4         q &.A           ",
"        n &.x         q %...        8 &.A   Z -.*.*.-.Z   i &.p         | &.q         v &.b         ",
"  - O.@.-.=.O.O.O.O.@.-.-.@.+.O.O.O.-.-.O.O.O.-.-.-.-.O.O.O.-.-.+.O.O.O.#.-.-.@.O.O.O.O.=.-.#.o.>   ",
"  & o.#.-.=.O.O.O.O.@.-.-.@.+.@.O.O.-.-.O.O.O.-.-.-.-.@.O.+.*.-.+.@.O.O.#.*.-.@.O.O.O.+.=.-.@.+.-   ",
"        b &.z         q %.|         p &.i   Z -.*.*.-.Z   A &.7         } &.q         v %.b         ",
"          A &.q         4 &.L          .o.Z -.Z ....Z -.A &.H         L %.4         q &.A           ",
"            ' &.$         x *.%       h *.-.J   ....  J -.*.4       * %.z         $ &.'             ",
"            + &./         X &.R       J -.*.&.O.@.@.O.%.*.-.F       T %.          / %.+             ",
"              a &.>         L %.    Z -.D 1 u O.&.&.O.u 1 D -.Z     %.L         > &.a               ",
"                $.(         e &.o Z -.Z         o.o.        Z -.Z + &.e         ( $.                ",
"                z %.o       9 &.J -.A           ....          Z -.L %.8       + %.k                 ",
"                % &.r       d *.-.Z             ....            Z -.*.s       r &.%                 ",
"                  $.T       { -.*.$.@._ g +     ....    $ f _ @.$.*.-.{       R #.                  ",
"                  ( @.    B =.$.~ I ~ O.&.&.K   ..... K &.%.O.! I ! #.-.Z     @._                   ",
"                  V &.  Z -.Z           + m &.O.X.X.+.&.N +           Z -.Z   %.V                   ",
"                  h &.A -.Z                 : %.&.&.&.>                 Z -.S &.h                   ",
"                  h *.-.A                     < &.&.<                     Z -.*.h                   ",
"                  U -.*.&.%.$.` k -             ....            - k ` #.%.%.*.-.U                   ",
"                Z -.R z z V E o.&.&.%.M $       ....      @ M &.&.&.o.Q Z x v R -.A                 ",
"              Z -.Z               2 R %.&.B     ....    V &.&.W 3               V -.Z               ",
"            Z -.Z                     + H %.#.; ....- #.&.H +                     Z -.Z             ",
"          Z -.Z                           - @.&.$.%.%.#.-                           Z -.Z           ",
"        Z -.Z                               X [ %.&.[ X                               Z -.Z         ",
"      Z -.Z                                     } }                                     Z -.Z       ",
"    Z -.Z                                                                                 Z -.Z     ",
"  0 -.Z                                                                                     Z -.0   ",
"    0                                                                                         0 X   ",
"                                                                                                    "
};
